<?xml version="1.0" encoding="UTF-8"?>
<svg id="_レイヤー_2" data-name="レイヤー 2" xmlns="http://www.w3.org/2000/svg" viewBox="0 0 70.67 65.6"  preserveAspectRatio="none">
  <defs>
    <style>
      .cls-1 {
        fill: #fff;
      }

      .cls-2 {
        fill: none;
        stroke: #435d96;
        stroke-miterlimit: 10;
        stroke-width: .5px;
      }

      .cls-3 {
        fill: #435d96;
      }
    </style>
  </defs>
  <g id="_レイヤー_1-2" data-name="レイヤー 1">
    <g>
      <path class="cls-1" d="M11.92,28.19c-3.68,1.67-7.25,3.58-10.69,5.72,4.03,.19,8.05,.66,12.02,1.39"/>
      <path class="cls-3" d="M11.29,27.11c-3.68,1.68-7.25,3.59-10.69,5.72-1.08,.67-.6,2.27,.63,2.33,3.92,.19,7.82,.64,11.69,1.35,.66,.12,1.35-.18,1.54-.87,.17-.61-.21-1.41-.87-1.54-4.08-.75-8.21-1.23-12.35-1.44l.63,2.33c3.44-2.13,7.01-4.04,10.69-5.72,.61-.28,.76-1.17,.45-1.71-.37-.63-1.09-.73-1.71-.45h0Z"/>
      <path class="cls-2" d="M11.92,28.19c-3.68,1.67-7.25,3.58-10.69,5.72,4.03,.19,8.05,.66,12.02,1.39"/>
    </g>
    <g>
      <path class="cls-1" d="M11.92,28.19c.03-1.98,.38-12.06,8.44-19.63C27.48,1.86,36.08,1.4,38.66,1.26c1.19-.06,5.25-.21,10.2,1.2,2.48,.71,6.63,1.93,10.4,5.4,.39,.35,.66,.63,.92,.89,1.5,1.53,3.94,4.31,5.88,8.31,1.78,3.66,2.38,6.74,2.74,8.71,.92,4.94,.64,8.68,.27,13.28-.65,7.98-.97,11.97-3.64,15.84-2.42,3.51-5.51,5.26-7.17,6.17-12.07,6.66-29.31,2.44-37-6-2.91-3.19-4.75-6.94-5.02-7.5-2.37-4.99-2.89-9.54-2.99-12.26"/>
      <path class="cls-3" d="M13.17,28.19c.17-11,7.14-21.03,17.76-24.35,9.8-3.07,22.02-1.15,29.12,6.6,4.55,4.95,7.1,11.23,7.88,17.86,.43,3.66,.17,7.33-.13,10.99-.26,3.16-.43,6.37-1.12,9.47-2.71,12.06-17.19,15.73-27.88,13.83-5.66-1.01-11.39-3.33-15.61-7.34s-7.27-10.13-8.3-16.08c-.22-1.28-.34-2.57-.39-3.86-.07-1.6-2.57-1.61-2.5,0,.26,6.31,2.29,12.37,5.91,17.53s9.19,8.95,15.42,10.96,13.52,2.48,20.01,.62c5.79-1.66,11.6-5.31,14.32-10.86,1.21-2.48,1.71-5.17,2.04-7.88,.48-3.87,.82-7.8,.95-11.7,.23-7.48-1.51-15.17-5.75-21.41-1.77-2.6-3.88-5.04-6.4-6.95-2.64-2.01-5.68-3.31-8.84-4.23-5.1-1.48-10.41-1.79-15.64-.87-6.83,1.2-13.12,4.78-17.38,10.3-3.45,4.48-5.41,9.97-5.88,15.59-.05,.59-.08,1.19-.09,1.79-.03,1.61,2.47,1.61,2.5,0h0Z"/>
    </g>
  </g>
</svg>