<?xml version="1.0" encoding="UTF-8"?>
<svg id="_レイヤー_2" data-name="レイヤー 2" xmlns="http://www.w3.org/2000/svg" viewBox="0 0 48 48">
  <defs>
    <style>
      .cls-1 {
        fill: #fff;
      }

      .cls-2 {
        fill: #69f;
      }

      .cls-3 {
        fill: none;
        stroke: #fff;
        stroke-linecap: round;
        stroke-linejoin: round;
        stroke-width: 4px;
      }
    </style>
  </defs>
  <g id="_レイヤー_1-2" data-name="レイヤー 1">
    <rect class="cls-2" width="48" height="48" rx="4" ry="4"/>
    <g>
      <line class="cls-3" x1="24" y1="7" x2="9" y2="22"/>
      <line class="cls-3" x1="24" y1="7" x2="39" y2="22"/>
    </g>
    <g>
      <path class="cls-1" d="M16.21,31.04h-2.42v8.96c0,.77-.56,1.17-1.52,1.17s-1.53-.4-1.53-1.17v-8.96h-2.41c-.49,0-.79-.46-.79-1.1s.29-1.01,.79-1.01h7.88c.51,0,.79,.38,.79,1.01s-.3,1.1-.79,1.1Z"/>
      <path class="cls-1" d="M23.64,41.32c-3.54,0-5.88-2-5.88-6.32v-.02c0-4.29,2.33-6.29,5.88-6.29s5.88,2,5.88,6.31-2.33,6.32-5.88,6.32Zm2.75-6.31c0-3.25-1.32-4.31-2.75-4.31h-.02c-1.41,0-2.73,1.06-2.73,4.31s1.32,4.31,2.75,4.31,2.73-1.07,2.73-4.31h.02Z"/>
      <path class="cls-1" d="M35.94,36.89h-1.68v3.12c0,.77-.54,1.17-1.51,1.17s-1.54-.4-1.54-1.17l-.02-9.14c0-1.44,.49-1.94,1.92-1.94h2.89c3.69,0,5.12,1.5,5.12,3.87,0,2.93-1.94,4.08-5.18,4.08Zm-.11-5.84h-1.21c-.32,0-.37,.08-.37,.37v3.01c0,.32,.05,.37,.37,.37h1.13c1.37,0,2.24-.5,2.24-1.92s-1.02-1.82-2.16-1.82Z"/>
    </g>
  </g>
</svg>