<?xml version="1.0" encoding="UTF-8"?>
<svg xmlns="http://www.w3.org/2000/svg" viewBox="0 0 1889 990.85">
  <defs>
    <style>
      .cls-1, .cls-2, .cls-3 {
        mix-blend-mode: multiply;
      }

      .cls-1, .cls-4 {
        fill: #ff6;
      }

      .cls-5 {
        isolation: isolate;
      }

      .cls-2, .cls-6 {
        fill: #69f;
      }

      .cls-7 {
        fill: #36f;
      }

      .cls-8 {
        fill: #ff0;
      }
    </style>
  </defs>
  <g class="cls-5">
    <g id="_レイヤー_2" data-name="レイヤー 2">
      <g id="_レイヤー_1-2" data-name="レイヤー 1">
        <g>
          <path class="cls-4" d="M506.33,485.8c91.1,36.02,157.82,105.07,192.04,187.6,84.43,33.38,182.6,34.97,274.49-3.14-36.93-89.05-107.62-154.22-192.04-187.6-85.17,35.32-183.4,39.16-274.49,3.14Z"/>
          <path class="cls-4" d="M780.83,482.66c85.17-35.32,157.28-102.13,196.15-192.05-91.1-36.02-189.33-32.18-274.49,3.14-36.02,83.33-104.25,153.93-196.15,192.05,91.9-38.11,190.07-36.52,274.49-3.14Z"/>
          <path class="cls-8" d="M780.83,482.66c-84.43-33.38-182.6-34.97-274.49,3.14,91.1,36.02,189.32,32.18,274.49-3.14Z"/>
          <path class="cls-4" d="M702.48,293.75c36.02-83.33,39.84-179.4,2.9-268.45-91.9,38.11-160.13,108.71-196.15,192.05,34.23,82.53,35.96,178.54-2.9,268.45,38.87-89.92,110.98-156.73,196.15-192.05Z"/>
          <path class="cls-8" d="M702.48,293.75c-85.17,35.32-157.28,102.13-196.15,192.05,91.9-38.11,160.13-108.71,196.15-192.05Z"/>
          <path class="cls-4" d="M509.24,217.35c-34.23-82.53-100.95-151.59-192.04-187.6-38.87,89.92-37.13,185.92-2.9,268.45,84.43,33.38,155.11,98.55,192.04,187.6-36.93-89.05-33.12-185.12,2.9-268.45Z"/>
          <path class="cls-8" d="M509.24,217.35c-36.02,83.33-39.84,179.4-2.9,268.45,38.87-89.92,37.13-185.92,2.9-268.45Z"/>
          <path class="cls-4" d="M314.29,298.2c-84.43-33.38-182.6-34.97-274.49,3.14,36.93,89.05,107.62,154.22,192.04,187.6,85.17-35.32,183.4-39.16,274.5-3.14-91.1-36.02-157.82-105.07-192.04-187.6Z"/>
          <path class="cls-8" d="M314.29,298.2c34.23,82.53,100.95,151.59,192.04,187.6-36.93-89.05-107.62-154.22-192.04-187.6Z"/>
          <path class="cls-4" d="M503.43,754.26c34.23,82.53,100.95,151.59,192.04,187.6,38.87-89.92,37.13-185.92,2.9-268.45-84.43-33.38-155.11-98.55-192.04-187.6,36.93,89.05,33.12,185.12-2.9,268.45Z"/>
          <path class="cls-8" d="M698.38,673.41c-34.23-82.53-100.95-151.59-192.04-187.6,36.93,89.05,107.62,154.22,192.04,187.6Z"/>
          <path class="cls-4" d="M310.18,677.85c-36.02,83.33-39.84,179.4-2.9,268.45,91.9-38.11,160.13-108.71,196.15-192.05-34.23-82.53-35.96-178.54,2.9-268.45-38.87,89.92-110.98,156.73-196.15,192.05Z"/>
          <path class="cls-8" d="M503.43,754.26c36.02-83.33,39.84-179.4,2.9-268.45-38.87,89.92-37.13,185.92-2.9,268.45Z"/>
          <path class="cls-4" d="M231.84,488.94c-85.17,35.32-157.28,102.13-196.15,192.05,91.1,36.02,189.32,32.18,274.49-3.14,36.02-83.33,104.25-153.93,196.15-192.05-91.9,38.11-190.07,36.52-274.5,3.14Z"/>
          <path class="cls-8" d="M310.18,677.85c85.17-35.32,157.28-102.13,196.15-192.05-91.9,38.11-160.13,108.71-196.15,192.05Z"/>
          <path class="cls-8" d="M231.84,488.94c84.43,33.38,182.6,34.97,274.5-3.14-91.1-36.02-189.33-32.18-274.5,3.14Z"/>
        </g>
        <g>
          <path class="cls-4" d="M1726.6,838.42c-52.64-12.76-97.22-52.46-113.63-108.15,16.41,55.69,.46,113.22-36.85,152.48,7.51,25.56,21.64,49.55,42.32,69.24,20.7,19.7,45.37,32.63,71.29,38.87,18.4-19.29,32.12-43.53,38.84-71.31,6.71-27.76,5.57-55.57-1.97-81.13Z"/>
          <path class="cls-4" d="M1834.7,724.79c-20.68-19.69-45.34-32.62-71.24-38.86-37.37,39.21-94.05,57.97-150.48,44.33,56.43,13.64,98.29,56.21,113.63,108.15,25.89,6.28,53.73,6.04,81.12-2.03,27.41-8.07,50.95-22.98,69.31-42.31-7.51-25.58-21.64-49.59-42.34-69.29Z"/>
          <path class="cls-8" d="M1612.98,730.26c16.41,55.69,60.99,95.4,113.63,108.15-15.34-51.94-57.2-94.52-113.63-108.15Z"/>
          <path class="cls-4" d="M1719.1,535.51c-27.39,8.07-50.92,22.96-69.27,42.27,15.27,51.97,3.18,110.43-36.85,152.48,40.03-42.05,97.82-57.01,150.48-44.33,18.38-19.28,32.09-43.51,38.8-71.27,6.71-27.78,5.57-55.61-1.99-81.17-25.91-6.29-53.76-6.05-81.17,2.02Z"/>
          <path class="cls-8" d="M1763.45,685.94c-52.66-12.69-110.45,2.27-150.48,44.33,56.43,13.64,113.11-5.12,150.48-44.33Z"/>
          <path class="cls-4" d="M1499.35,622.11c52.64,12.76,97.22,52.46,113.63,108.15-16.41-55.69-.46-113.22,36.85-152.48-7.51-25.56-21.64-49.55-42.32-69.24-20.7-19.7-45.37-32.63-71.29-38.87-18.4,19.29-32.12,43.53-38.84,71.31-6.71,27.76-5.57,55.57,1.97,81.13Z"/>
          <path class="cls-8" d="M1649.83,577.78c-37.31,39.26-53.26,96.79-36.85,152.48,40.03-42.05,52.12-100.52,36.85-152.48Z"/>
          <path class="cls-4" d="M1506.85,925.02c27.39-8.07,50.92-22.96,69.27-42.27-15.27-51.97-3.18-110.43,36.85-152.48-40.03,42.05-97.82,57.01-150.48,44.33-18.38,19.28-32.09,43.51-38.8,71.27-6.71,27.78-5.57,55.61,1.99,81.17,25.91,6.29,53.76,6.05,81.17-2.02Z"/>
          <path class="cls-8" d="M1576.13,882.75c37.31-39.26,53.26-96.79,36.85-152.48-40.03,42.05-52.12,100.52-36.85,152.48Z"/>
          <path class="cls-4" d="M1391.25,735.74c20.68,19.69,45.34,32.62,71.24,38.86,37.37-39.21,94.05-57.97,150.48-44.33-56.43-13.64-98.29-56.21-113.63-108.15-25.89-6.28-53.73-6.04-81.12,2.03-27.41,8.07-50.95,22.98-69.31,42.31,7.51,25.58,21.64,49.59,42.34,69.29Z"/>
          <path class="cls-8" d="M1462.5,774.59c52.66,12.69,110.45-2.27,150.48-44.33-56.43-13.64-113.11,5.12-150.48,44.33Z"/>
          <path class="cls-8" d="M1499.35,622.11c15.34,51.94,57.2,94.52,113.63,108.15-16.41-55.69-60.99-95.4-113.63-108.15Z"/>
        </g>
        <g>
          <path class="cls-2" d="M1256.28,247.16c-21.24-10.54-39.46-27.67-51.24-50.31-.05,.05-.1,.1-.15,.15-3.82,24.96-15.35,46.85-31.79,63.61-5.42,35.59,5.74,73.18,33.37,100.33,8.87,8.71,18.78,15.7,29.33,20.99,8.39-8.51,15.61-18.47,21.24-29.75,17.16-34.42,15.62-73.28-.76-105.04Z"/>
          <path class="cls-2" d="M1268.65,163.73c-16.51,16.83-38.27,28.8-63.27,33.06,22.72,11.44,40.06,29.35,50.9,50.37,32.08,15.93,71.07,16.84,105.27-.97,11.11-5.78,20.88-13.12,29.21-21.59-5.49-10.54-12.69-20.41-21.62-29.19-27.53-27.05-65.12-37.57-100.49-31.68Z"/>
          <path class="cls-7" d="M1205.04,196.85c11.79,22.64,30,39.77,51.24,50.31-10.84-21.02-28.18-38.93-50.9-50.37-.12,.02-.23,.04-.34,.06Z"/>
          <path class="cls-2" d="M1254.38,40.34c-34.2,17.81-55.81,50.26-61.17,85.68,10.89,20.96,15.5,45.41,11.75,70.56,.08,.04,.16,.08,.23,.12,17.84-18.09,40.16-29.08,63.45-32.96,25.11-25.59,38.05-62.42,31.68-100.49-2.07-12.35-6.02-23.91-11.51-34.45-11.72,1.96-23.33,5.76-34.44,11.55Z"/>
          <path class="cls-7" d="M1268.65,163.73c-23.29,3.88-45.61,14.87-63.45,32.96,.06,.03,.12,.06,.19,.1,25-4.26,46.76-16.23,63.27-33.06Z"/>
          <path class="cls-2" d="M1173.1,260.61c3.53-23.21,14.12-45.56,31.79-63.61,0-.04,.01-.09,.02-.13-25.27,4.2-49.99-.11-71.24-10.83-35.21,6.04-67.18,28.19-84.34,62.61-5.59,11.21-9.18,22.89-10.94,34.64,10.63,5.3,22.26,9.05,34.65,10.9,38.24,5.71,74.9-7.93,100.05-33.58Z"/>
          <path class="cls-7" d="M1173.1,260.61c16.44-16.76,27.97-38.65,31.79-63.61-17.67,18.05-28.26,40.4-31.79,63.61Z"/>
          <path class="cls-2" d="M1133.68,186.03c23.43-4.02,48.29-.9,71.2,10.5-11.66-22.56-15.19-47.18-11.66-70.52-16.56-31.87-47.63-55.64-85.87-61.36-12.34-1.84-24.52-1.66-36.2,.28-1.8,11.84-1.79,24.17,.29,36.62,6.34,37.89,30.38,68.4,62.24,84.48Z"/>
          <path class="cls-7" d="M1204.88,196.53c-22.91-11.4-47.77-14.51-71.2-10.5,21.25,10.72,45.97,15.04,71.24,10.83,.01-.07,.02-.13,.03-.2-.02-.05-.05-.09-.07-.14Z"/>
          <path class="cls-7" d="M1193.22,126.01c-3.53,23.34,0,47.96,11.66,70.52,.03,.01,.06,.03,.08,.04,3.76-25.14-.86-49.6-11.75-70.56Z"/>
        </g>
        <g>
          <circle class="cls-4" cx="1771" cy="279.5" r="118"/>
          <circle class="cls-2" cx="1642" cy="201.5" r="77.5"/>
        </g>
        <g>
          <circle class="cls-2" cx="1149.5" cy="799" r="99"/>
          <g class="cls-3">
            <circle class="cls-4" cx="1047.5" cy="892" r="47"/>
          </g>
          <g class="cls-3">
            <circle class="cls-4" cx="1227.5" cy="712" r="48"/>
          </g>
        </g>
        <circle class="cls-6" cx="84.25" cy="168.25" r="84.25"/>
        <g>
          <circle class="cls-6" cx="79.81" cy="897.37" r="56"/>
          <circle class="cls-1" cx="122.99" cy="833.93" r="34.5"/>
        </g>
        <circle class="cls-6" cx="1227.5" cy="515" r="73"/>
        <circle class="cls-4" cx="1486" cy="51.5" r="51.5"/>
        <circle class="cls-6" cx="916.5" cy="52" r="45"/>
      </g>
    </g>
  </g>
</svg>