<?xml version="1.0" encoding="UTF-8"?>
<svg xmlns="http://www.w3.org/2000/svg" viewBox="0 0 746.79 930">
  <defs>
    <style>
      .cls-1, .cls-2, .cls-3 {
        mix-blend-mode: multiply;
      }

      .cls-1, .cls-4 {
        fill: #ff6;
      }

      .cls-5 {
        isolation: isolate;
      }

      .cls-2, .cls-6 {
        fill: #69f;
      }

      .cls-7 {
        fill: #36f;
      }

      .cls-8 {
        fill: #ff0;
      }
    </style>
  </defs>
  <g class="cls-5">
    <g id="_レイヤー_2" data-name="レイヤー 2">
      <g id="_レイヤー_3" data-name="レイヤー 3">
        <g>
          <path class="cls-4" d="M277.9,656.78c52.67,20.83,91.25,60.75,111.04,108.47,48.81,19.3,105.57,20.22,158.71-1.82-21.35-51.49-62.22-89.17-111.04-108.47-49.24,20.42-106.04,22.64-158.71,1.82Z"/>
          <path class="cls-4" d="M436.6,654.96c49.24-20.42,90.94-59.05,113.41-111.04-52.67-20.83-109.46-18.61-158.71,1.82-20.83,48.18-60.28,89-113.41,111.04,53.13-22.04,109.89-21.12,158.71-1.82Z"/>
          <path class="cls-8" d="M436.6,654.96c-48.81-19.3-105.57-20.22-158.71,1.82,52.67,20.83,109.46,18.61,158.71-1.82Z"/>
          <path class="cls-4" d="M391.31,545.74c20.83-48.18,23.03-103.73,1.68-155.22-53.13,22.04-92.58,62.86-113.41,111.04,19.79,47.72,20.79,103.23-1.68,155.22,22.47-51.99,64.17-90.62,113.41-111.04Z"/>
          <path class="cls-8" d="M391.31,545.74c-49.24,20.42-90.94,59.05-113.41,111.04,53.13-22.04,92.58-62.86,113.41-111.04Z"/>
          <path class="cls-4" d="M279.57,501.56c-19.79-47.72-58.37-87.64-111.04-108.47-22.47,51.99-21.47,107.5-1.68,155.22,48.81,19.3,89.68,56.98,111.04,108.47-21.35-51.49-19.15-107.03,1.68-155.22Z"/>
          <path class="cls-8" d="M279.57,501.56c-20.83,48.18-23.03,103.73-1.68,155.22,22.47-51.99,21.47-107.5,1.68-155.22Z"/>
          <path class="cls-4" d="M166.86,548.31c-48.81-19.3-105.57-20.22-158.71,1.82,21.35,51.49,62.22,89.17,111.04,108.47,49.24-20.42,106.04-22.64,158.71-1.82-52.67-20.83-91.25-60.75-111.04-108.47Z"/>
          <path class="cls-8" d="M166.86,548.31c19.79,47.72,58.37,87.64,111.04,108.47-21.35-51.49-62.22-89.17-111.04-108.47Z"/>
          <path class="cls-4" d="M276.22,811.99c19.79,47.72,58.37,87.64,111.04,108.47,22.47-51.99,21.47-107.5,1.68-155.22-48.81-19.3-89.68-56.98-111.04-108.47,21.35,51.49,19.15,107.03-1.68,155.22Z"/>
          <path class="cls-8" d="M388.93,765.25c-19.79-47.72-58.37-87.64-111.04-108.47,21.35,51.49,62.22,89.17,111.04,108.47Z"/>
          <path class="cls-4" d="M164.48,767.82c-20.83,48.18-23.03,103.73-1.68,155.22,53.13-22.04,92.58-62.86,113.41-111.04-19.79-47.72-20.79-103.23,1.68-155.22-22.47,51.99-64.17,90.62-113.41,111.04Z"/>
          <path class="cls-8" d="M276.22,811.99c20.83-48.18,23.03-103.73,1.68-155.22-22.47,51.99-21.47,107.5-1.68,155.22Z"/>
          <path class="cls-4" d="M119.19,658.6c-49.24,20.42-90.94,59.05-113.41,111.04,52.67,20.83,109.46,18.61,158.71-1.82,20.83-48.18,60.28-89,113.41-111.04-53.13,22.04-109.89,21.12-158.71,1.82Z"/>
          <path class="cls-8" d="M164.48,767.82c49.24-20.42,90.94-59.05,113.41-111.04-53.13,22.04-92.58,62.86-113.41,111.04Z"/>
          <path class="cls-8" d="M119.19,658.6c48.81,19.3,105.57,20.22,158.71-1.82-52.67-20.83-109.46-18.61-158.71,1.82Z"/>
        </g>
        <g>
          <path class="cls-4" d="M208.28,219.26c-29.03-7.04-53.62-28.93-62.66-59.64,9.05,30.71,.26,62.44-20.32,84.09,4.14,14.1,11.93,27.33,23.34,38.18,11.41,10.86,25.02,17.99,39.31,21.43,10.15-10.64,17.72-24.01,21.42-39.32,3.7-15.31,3.07-30.65-1.09-44.74Z"/>
          <path class="cls-4" d="M267.89,156.6c-11.41-10.86-25-17.99-39.29-21.43-20.61,21.62-51.86,31.97-82.98,24.45,31.12,7.52,54.2,31,62.66,59.64,14.28,3.46,29.63,3.33,44.74-1.12,15.12-4.45,28.09-12.67,38.22-23.33-4.14-14.11-11.93-27.35-23.35-38.21Z"/>
          <path class="cls-8" d="M145.62,159.62c9.05,30.71,33.63,52.61,62.66,59.64-8.46-28.65-31.54-52.12-62.66-59.64Z"/>
          <path class="cls-4" d="M204.14,52.22c-15.11,4.45-28.08,12.66-38.2,23.31,8.42,28.66,1.75,60.9-20.32,84.09,22.07-23.19,53.95-31.44,82.98-24.45,10.14-10.63,17.7-24,21.4-39.3,3.7-15.32,3.07-30.67-1.1-44.76-14.29-3.47-29.65-3.34-44.76,1.11Z"/>
          <path class="cls-8" d="M228.6,135.17c-29.04-7-60.91,1.25-82.98,24.45,31.12,7.52,62.38-2.82,82.98-24.45Z"/>
          <path class="cls-4" d="M82.96,99.97c29.03,7.04,53.62,28.93,62.66,59.64-9.05-30.71-.26-62.44,20.32-84.09-4.14-14.1-11.93-27.33-23.34-38.18-11.41-10.86-25.02-17.99-39.31-21.43-10.15,10.64-17.72,24.01-21.42,39.32s-3.07,30.65,1.09,44.74Z"/>
          <path class="cls-8" d="M165.94,75.53c-20.58,21.65-29.37,53.38-20.32,84.09,22.07-23.19,28.74-55.43,20.32-84.09Z"/>
          <path class="cls-4" d="M87.1,267.02c15.11-4.45,28.08-12.66,38.2-23.31-8.42-28.66-1.75-60.9,20.32-84.09-22.07,23.19-53.95,31.44-82.98,24.45-10.14,10.63-17.7,24-21.4,39.3-3.7,15.32-3.07,30.67,1.1,44.76,14.29,3.47,29.65,3.34,44.76-1.11Z"/>
          <path class="cls-8" d="M125.3,243.71c20.58-21.65,29.37-53.38,20.32-84.09-22.07,23.19-28.74,55.43-20.32,84.09Z"/>
          <path class="cls-4" d="M23.35,162.63c11.41,10.86,25,17.99,39.29,21.43,20.61-21.62,51.86-31.97,82.98-24.45-31.12-7.52-54.2-31-62.66-59.64-14.28-3.46-29.63-3.33-44.74,1.12-15.12,4.45-28.09,12.67-38.22,23.33,4.14,14.11,11.93,27.35,23.35,38.21Z"/>
          <path class="cls-8" d="M62.63,184.06c29.04,7,60.91-1.25,82.98-24.45-31.12-7.52-62.38,2.82-82.98,24.45Z"/>
          <path class="cls-8" d="M82.96,99.97c8.46,28.65,31.54,52.12,62.66,59.64-9.05-30.71-33.63-52.61-62.66-59.64Z"/>
        </g>
        <g>
          <path class="cls-2" d="M594.41,297.53c-24.07-11.95-44.71-31.35-58.07-57.01-.06,.06-.11,.12-.17,.17-4.33,28.29-17.39,53.09-36.02,72.08-6.14,40.32,6.5,82.92,37.82,113.69,10.05,9.87,21.28,17.79,33.23,23.79,9.51-9.64,17.69-20.92,24.06-33.71,19.45-39.01,17.7-83.04-.86-119.02Z"/>
          <path class="cls-2" d="M608.42,203c-18.7,19.07-43.37,32.63-71.69,37.46,25.75,12.97,45.39,33.26,57.68,57.08,36.35,18.05,80.53,19.08,119.28-1.1,12.59-6.55,23.66-14.86,33.1-24.47-6.22-11.94-14.38-23.13-24.5-33.07-31.19-30.65-73.79-42.57-113.86-35.9Z"/>
          <path class="cls-7" d="M536.34,240.52c13.36,25.66,34,45.06,58.07,57.01-12.28-23.82-31.93-44.11-57.68-57.08-.13,.02-.26,.05-.39,.07Z"/>
          <path class="cls-2" d="M592.25,63.17c-38.75,20.18-63.24,56.95-69.31,97.08,12.34,23.75,17.57,51.46,13.31,79.95,.09,.04,.18,.09,.27,.14,20.22-20.5,45.51-32.95,71.9-37.35,28.45-29,43.12-70.73,35.9-113.86-2.34-14-6.82-27.1-13.04-39.04-13.28,2.22-26.44,6.53-39.03,13.08Z"/>
          <path class="cls-7" d="M608.42,203c-26.39,4.39-51.68,16.85-71.9,37.35,.07,.04,.14,.07,.21,.11,28.33-4.83,52.99-18.39,71.69-37.46Z"/>
          <path class="cls-2" d="M500.15,312.77c4-26.3,16-51.63,36.02-72.08,0-.05,.02-.1,.02-.15-28.64,4.76-56.65-.12-80.72-12.28-39.9,6.84-76.12,31.94-95.56,70.95-6.33,12.7-10.41,25.93-12.4,39.25,12.05,6.01,25.23,10.26,39.26,12.35,43.33,6.47,84.87-8.99,113.37-38.04Z"/>
          <path class="cls-7" d="M500.15,312.77c18.63-18.99,31.69-43.79,36.02-72.08-20.02,20.45-32.02,45.78-36.02,72.08Z"/>
          <path class="cls-2" d="M455.48,228.27c26.55-4.55,54.72-1.02,80.68,11.89-13.21-25.56-17.21-53.46-13.22-79.9-18.76-36.12-53.97-63.05-97.3-69.52-13.99-2.09-27.79-1.88-41.02,.32-2.04,13.42-2.03,27.38,.33,41.5,7.19,42.94,34.43,77.5,70.53,95.72Z"/>
          <path class="cls-7" d="M536.16,240.16c-25.96-12.91-54.13-16.44-80.68-11.89,24.07,12.15,52.09,17.04,80.72,12.28,.01-.08,.03-.15,.04-.23-.03-.05-.05-.1-.08-.16Z"/>
          <path class="cls-7" d="M522.94,160.26c-4,26.45,0,54.34,13.22,79.9,.03,.02,.06,.03,.1,.05,4.26-28.49-.98-56.2-13.31-79.95Z"/>
        </g>
        <g>
          <circle class="cls-2" cx="640.24" cy="819.53" r="78.12"/>
          <g class="cls-3">
            <circle class="cls-4" cx="559.75" cy="892.91" r="37.09"/>
          </g>
          <g class="cls-3">
            <circle class="cls-4" cx="701.79" cy="750.88" r="37.88"/>
          </g>
        </g>
        <circle class="cls-6" cx="673.16" cy="537.33" r="53.33"/>
        <g>
          <circle class="cls-6" cx="68.81" cy="411.53" r="56"/>
          <circle class="cls-1" cx="111.98" cy="348.09" r="34.5"/>
        </g>
        <circle class="cls-4" cx="334.66" cy="38" r="38"/>
      </g>
    </g>
  </g>
</svg>