<?xml version="1.0" encoding="UTF-8"?>
<svg xmlns="http://www.w3.org/2000/svg" viewBox="0 0 361.09 627.41">
  <defs>
    <style>
      .cls-1, .cls-2, .cls-3 {
        mix-blend-mode: multiply;
      }

      .cls-1, .cls-4 {
        fill: #ff6;
      }

      .cls-5 {
        isolation: isolate;
      }

      .cls-2, .cls-6 {
        fill: #69f;
      }

      .cls-7 {
        fill: #36f;
      }

      .cls-8 {
        fill: #ff0;
      }
    </style>
  </defs>
  <g class="cls-5">
    <g id="_レイヤー_2" data-name="レイヤー 2">
      <g id="_レイヤー_4" data-name="レイヤー 4">
        <g>
          <path class="cls-4" d="M178.36,462.07c32.29,12.77,55.94,37.24,68.07,66.49,29.92,11.83,64.72,12.39,97.29-1.11-13.09-31.56-38.14-54.66-68.07-66.49-30.19,12.52-65,13.88-97.29,1.11Z"/>
          <path class="cls-4" d="M275.65,460.96c30.19-12.52,55.75-36.2,69.52-68.07-32.29-12.77-67.1-11.41-97.29,1.11-12.77,29.54-36.95,54.56-69.52,68.07,32.57-13.51,67.37-12.95,97.29-1.11Z"/>
          <path class="cls-8" d="M275.65,460.96c-29.92-11.83-64.72-12.39-97.29,1.11,32.29,12.77,67.1,11.41,97.29-1.11Z"/>
          <path class="cls-4" d="M247.88,394c12.77-29.54,14.12-63.59,1.03-95.15-32.57,13.51-56.76,38.53-69.52,68.07,12.13,29.25,12.75,63.28-1.03,95.15,13.78-31.87,39.34-55.55,69.52-68.07Z"/>
          <path class="cls-8" d="M247.88,394c-30.19,12.52-55.75,36.2-69.52,68.07,32.57-13.51,56.76-38.53,69.52-68.07Z"/>
          <path class="cls-4" d="M179.39,366.92c-12.13-29.25-35.78-53.73-68.07-66.49-13.78,31.87-13.16,65.9-1.03,95.15,29.92,11.83,54.98,34.93,68.07,66.49-13.09-31.56-11.74-65.61,1.03-95.15Z"/>
          <path class="cls-8" d="M179.39,366.92c-12.77,29.54-14.12,63.59-1.03,95.15,13.78-31.87,13.16-65.9,1.03-95.15Z"/>
          <path class="cls-4" d="M110.29,395.58c-29.92-11.83-64.72-12.39-97.29,1.11,13.09,31.56,38.14,54.66,68.07,66.49,30.19-12.52,65-13.88,97.29-1.11-32.29-12.77-55.94-37.24-68.07-66.49Z"/>
          <path class="cls-8" d="M110.29,395.58c12.13,29.25,35.78,53.73,68.07,66.49-13.09-31.56-38.14-54.66-68.07-66.49Z"/>
          <path class="cls-4" d="M177.33,557.22c12.13,29.25,35.78,53.73,68.07,66.49,13.78-31.87,13.16-65.9,1.03-95.15-29.92-11.83-54.98-34.93-68.07-66.49,13.09,31.56,11.74,65.61-1.03,95.15Z"/>
          <path class="cls-8" d="M246.43,528.56c-12.13-29.25-35.78-53.73-68.07-66.49,13.09,31.56,38.14,54.66,68.07,66.49Z"/>
          <path class="cls-4" d="M108.84,530.14c-12.77,29.54-14.12,63.59-1.03,95.15,32.57-13.51,56.76-38.53,69.52-68.07-12.13-29.25-12.75-63.28,1.03-95.15-13.78,31.87-39.34,55.55-69.52,68.07Z"/>
          <path class="cls-8" d="M177.33,557.22c12.77-29.54,14.12-63.59,1.03-95.15-13.78,31.87-13.16,65.9-1.03,95.15Z"/>
          <path class="cls-4" d="M81.07,463.19c-30.19,12.52-55.75,36.2-69.52,68.07,32.29,12.77,67.1,11.41,97.29-1.11,12.77-29.54,36.95-54.56,69.52-68.07-32.57,13.51-67.37,12.95-97.29,1.11Z"/>
          <path class="cls-8" d="M108.84,530.14c30.19-12.52,55.75-36.2,69.52-68.07-32.57,13.51-56.76,38.53-69.52,68.07Z"/>
          <path class="cls-8" d="M81.07,463.19c29.92,11.83,64.72,12.39,97.29-1.11-32.29-12.77-67.1-11.41-97.29,1.11Z"/>
        </g>
        <g>
          <path class="cls-4" d="M103.99,133.45c-14.49-3.51-26.77-14.45-31.29-29.78,4.52,15.33,.13,31.18-10.15,41.98,2.07,7.04,5.96,13.64,11.65,19.06,5.7,5.42,12.49,8.98,19.63,10.7,5.07-5.31,8.84-11.99,10.69-19.63,1.85-7.64,1.53-15.3-.54-22.34Z"/>
          <path class="cls-4" d="M133.75,102.16c-5.7-5.42-12.48-8.98-19.62-10.7-10.29,10.79-25.89,15.96-41.43,12.21,15.54,3.76,27.06,15.48,31.29,29.78,7.13,1.73,14.79,1.66,22.34-.56,7.55-2.22,14.03-6.33,19.08-11.65-2.07-7.04-5.96-13.65-11.66-19.08Z"/>
          <path class="cls-8" d="M72.71,103.67c4.52,15.33,16.79,26.27,31.29,29.78-4.22-14.3-15.75-26.02-31.29-29.78Z"/>
          <path class="cls-4" d="M101.93,50.05c-7.54,2.22-14.02,6.32-19.07,11.64,4.2,14.31,.87,30.41-10.15,41.98,11.02-11.58,26.93-15.7,41.43-12.21,5.06-5.31,8.84-11.98,10.68-19.62s1.53-15.31-.55-22.35c-7.13-1.73-14.8-1.67-22.35,.56Z"/>
          <path class="cls-8" d="M114.14,91.46c-14.5-3.49-30.41,.63-41.43,12.21,15.54,3.76,31.14-1.41,41.43-12.21Z"/>
          <path class="cls-4" d="M41.42,73.89c14.49,3.51,26.77,14.45,31.29,29.78-4.52-15.33-.13-31.18,10.15-41.98-2.07-7.04-5.96-13.64-11.65-19.06-5.7-5.42-12.49-8.98-19.63-10.7-5.07,5.31-8.84,11.99-10.69,19.63-1.85,7.64-1.53,15.3,.54,22.34Z"/>
          <path class="cls-8" d="M82.85,61.68c-10.27,10.81-14.66,26.65-10.15,41.98,11.02-11.58,14.35-27.68,10.15-41.98Z"/>
          <path class="cls-4" d="M43.49,157.29c7.54-2.22,14.02-6.32,19.07-11.64-4.2-14.31-.87-30.41,10.15-41.98-11.02,11.58-26.93,15.7-41.43,12.21-5.06,5.31-8.84,11.98-10.68,19.62-1.85,7.65-1.53,15.31,.55,22.35,7.13,1.73,14.8,1.67,22.35-.56Z"/>
          <path class="cls-8" d="M62.56,145.65c10.27-10.81,14.66-26.65,10.15-41.98-11.02,11.58-14.35,27.68-10.15,41.98Z"/>
          <path class="cls-4" d="M11.66,105.18c5.7,5.42,12.48,8.98,19.62,10.7,10.29-10.79,25.89-15.96,41.43-12.21-15.54-3.76-27.06-15.48-31.29-29.78-7.13-1.73-14.79-1.66-22.34,.56-7.55,2.22-14.03,6.33-19.08,11.65,2.07,7.04,5.96,13.65,11.66,19.08Z"/>
          <path class="cls-8" d="M31.27,115.87c14.5,3.49,30.41-.63,41.43-12.21-15.54-3.76-31.14,1.41-41.43,12.21Z"/>
          <path class="cls-8" d="M41.42,73.89c4.22,14.3,15.75,26.02,31.29,29.78-4.52-15.33-16.79-26.27-31.29-29.78Z"/>
        </g>
        <g>
          <path class="cls-2" d="M280.37,179.83c-12.75-6.33-23.68-16.61-30.76-30.2-.03,.03-.06,.06-.09,.09-2.3,14.98-9.21,28.12-19.08,38.18-3.25,21.36,3.44,43.92,20.03,60.22,5.32,5.23,11.27,9.43,17.6,12.6,5.04-5.11,9.37-11.08,12.75-17.85,10.3-20.66,9.37-43.99-.45-63.05Z"/>
          <path class="cls-2" d="M287.8,129.75c-9.91,10.1-22.97,17.28-37.98,19.84,13.64,6.87,24.05,17.62,30.55,30.24,19.26,9.56,42.66,10.11,63.18-.58,6.67-3.47,12.53-7.87,17.53-12.96-3.29-6.33-7.62-12.25-12.98-17.52-16.52-16.24-39.09-22.55-60.32-19.02Z"/>
          <path class="cls-7" d="M249.61,149.63c7.08,13.59,18.01,23.87,30.76,30.2-6.51-12.62-16.91-23.37-30.55-30.24-.07,.01-.14,.03-.21,.04Z"/>
          <path class="cls-2" d="M279.23,55.68c-20.53,10.69-33.5,30.17-36.71,51.43,6.53,12.58,9.31,27.26,7.05,42.35,.05,.02,.09,.05,.14,.07,10.71-10.86,24.11-17.46,38.09-19.78,15.07-15.36,22.84-37.47,19.02-60.32-1.24-7.41-3.62-14.35-6.91-20.68-7.03,1.18-14.01,3.46-20.67,6.93Z"/>
          <path class="cls-7" d="M287.8,129.75c-13.98,2.33-27.38,8.93-38.09,19.78,.04,.02,.07,.04,.11,.06,15-2.56,28.07-9.74,37.98-19.84Z"/>
          <path class="cls-2" d="M230.45,187.9c2.12-13.93,8.47-27.35,19.08-38.18,0-.03,0-.05,.01-.08-15.17,2.52-30.01-.07-42.76-6.5-21.14,3.62-40.32,16.92-50.62,37.58-3.35,6.73-5.51,13.74-6.57,20.79,6.38,3.18,13.36,5.43,20.8,6.54,22.95,3.43,44.96-4.76,60.06-20.15Z"/>
          <path class="cls-7" d="M230.45,187.9c9.87-10.06,16.79-23.2,19.08-38.18-10.61,10.83-16.96,24.25-19.08,38.18Z"/>
          <path class="cls-2" d="M206.78,143.14c14.06-2.41,28.99-.54,42.74,6.3-7-13.54-9.12-28.32-7-42.33-9.94-19.13-28.59-33.4-51.54-36.83-7.41-1.11-14.72-1-21.73,.17-1.08,7.11-1.08,14.5,.18,21.98,3.81,22.74,18.24,41.05,37.36,50.71Z"/>
          <path class="cls-7" d="M249.52,149.44c-13.75-6.84-28.68-8.71-42.74-6.3,12.75,6.44,27.59,9.03,42.76,6.5,0-.04,.01-.08,.02-.12-.01-.03-.03-.05-.04-.08Z"/>
          <path class="cls-7" d="M242.52,107.11c-2.12,14.01,0,28.79,7,42.33,.02,0,.03,.02,.05,.02,2.25-15.09-.52-29.77-7.05-42.35Z"/>
        </g>
        <g>
          <circle class="cls-2" cx="61.66" cy="255.15" r="39"/>
          <g class="cls-3">
            <circle class="cls-4" cx="21.48" cy="291.79" r="18.52"/>
          </g>
          <g class="cls-3">
            <circle class="cls-4" cx="92.39" cy="220.88" r="18.91"/>
          </g>
        </g>
        <circle class="cls-6" cx="315.1" cy="311.26" r="26.63"/>
        <g>
          <circle class="cls-6" cx="315.35" cy="599.44" r="27.96"/>
          <circle class="cls-1" cx="336.91" cy="567.77" r="17.23"/>
        </g>
        <circle class="cls-4" cx="232.11" cy="24.96" r="24.96"/>
      </g>
    </g>
  </g>
</svg>