<svg xmlns="http://www.w3.org/2000/svg" viewBox="0 0 1899.06 372.39"><defs><style>.cls-1{isolation:isolate;}.cls-2,.cls-8{fill:#ff6;}.cls-3{fill:#ff0;}.cls-4,.cls-7{fill:#69f;}.cls-4,.cls-6,.cls-8{mix-blend-mode:multiply;}.cls-5{fill:#36f;}</style></defs><g class="cls-1"><g id="レイヤー_2" data-name="レイヤー 2"><g id="レイヤー_2-2" data-name="レイヤー 2"><g id="レイヤー_5" data-name="レイヤー 5"><path class="cls-2" d="M385.62,184.42a137.25,137.25,0,0,1,76.91,75.14,146.19,146.19,0,0,0,109.93-1.26c-14.79-35.66-43.1-61.77-76.91-75.13A146.22,146.22,0,0,1,385.62,184.42Z"/><path class="cls-2" d="M495.55,183.17a146.27,146.27,0,0,0,78.56-76.92,146.27,146.27,0,0,0-109.93,1.26,146.18,146.18,0,0,1-78.56,76.91A146.19,146.19,0,0,1,495.55,183.17Z"/><path class="cls-3" d="M495.55,183.17a146.19,146.19,0,0,0-109.93,1.25A146.22,146.22,0,0,0,495.55,183.17Z"/><path class="cls-2" d="M464.18,107.51C478.6,74.14,480.13,35.66,465.34,0a146.18,146.18,0,0,0-78.56,76.91,137.17,137.17,0,0,1-1.16,107.51A146.25,146.25,0,0,1,464.18,107.51Z"/><path class="cls-3" d="M464.18,107.51a146.25,146.25,0,0,0-78.56,76.91A146.18,146.18,0,0,0,464.18,107.51Z"/><path class="cls-2" d="M386.78,76.91A137.15,137.15,0,0,0,309.87,1.78a137.21,137.21,0,0,0-1.16,107.51c33.81,13.37,62.12,39.47,76.91,75.13C370.83,148.76,372.36,110.29,386.78,76.91Z"/><path class="cls-3" d="M386.78,76.91c-14.42,33.38-15.95,71.85-1.16,107.51A137.17,137.17,0,0,0,386.78,76.91Z"/><path class="cls-2" d="M308.71,109.29a146.19,146.19,0,0,0-109.93,1.26c14.79,35.66,43.1,61.76,76.91,75.13a146.27,146.27,0,0,1,109.93-1.26A137.21,137.21,0,0,1,308.71,109.29Z"/><path class="cls-3" d="M308.71,109.29a137.21,137.21,0,0,0,76.91,75.13C370.83,148.76,342.52,122.66,308.71,109.29Z"/><path class="cls-2" d="M384.46,291.94a137.24,137.24,0,0,0,76.91,75.13,137.21,137.21,0,0,0,1.16-107.51c-33.81-13.37-62.12-39.47-76.91-75.14C400.41,220.09,398.88,258.56,384.46,291.94Z"/><path class="cls-3" d="M462.53,259.56a137.25,137.25,0,0,0-76.91-75.14C400.41,220.09,428.72,246.19,462.53,259.56Z"/><path class="cls-2" d="M307.07,261.34c-14.43,33.37-16,71.85-1.17,107.51a146.18,146.18,0,0,0,78.56-76.91,137.2,137.2,0,0,1,1.16-107.52A146.25,146.25,0,0,1,307.07,261.34Z"/><path class="cls-3" d="M384.46,291.94c14.42-33.38,16-71.85,1.16-107.52A137.2,137.2,0,0,0,384.46,291.94Z"/><path class="cls-2" d="M275.69,185.68a146.24,146.24,0,0,0-78.56,76.92,146.3,146.3,0,0,0,109.94-1.26,146.18,146.18,0,0,1,78.55-76.92A146.14,146.14,0,0,1,275.69,185.68Z"/><path class="cls-3" d="M307.07,261.34a146.25,146.25,0,0,0,78.55-76.92A146.18,146.18,0,0,0,307.07,261.34Z"/><path class="cls-3" d="M275.69,185.68a146.14,146.14,0,0,0,109.93-1.26A146.27,146.27,0,0,0,275.69,185.68Z"/><path class="cls-2" d="M1792.26,264.07a111.32,111.32,0,0,1-80.68-76.79,111.3,111.3,0,0,1-26.16,108.26,111.49,111.49,0,0,0,80.66,76.76,111.45,111.45,0,0,0,26.18-108.23Z"/><path class="cls-2" d="M1869,183.4a110.83,110.83,0,0,0-50.58-27.59,111.27,111.27,0,0,1-106.84,31.47,111.31,111.31,0,0,1,80.68,76.79,111.45,111.45,0,0,0,106.8-31.48A110.8,110.8,0,0,0,1869,183.4Z"/><path class="cls-3" d="M1711.58,187.28a111.32,111.32,0,0,0,80.68,76.79A111.31,111.31,0,0,0,1711.58,187.28Z"/><path class="cls-2" d="M1786.93,49a110.73,110.73,0,0,0-49.18,30,111.28,111.28,0,0,1-26.17,108.25,111.34,111.34,0,0,1,106.84-31.47,111.45,111.45,0,0,0,26.14-108.23A110.8,110.8,0,0,0,1786.93,49Z"/><path class="cls-3" d="M1818.42,155.81a111.34,111.34,0,0,0-106.84,31.47A111.27,111.27,0,0,0,1818.42,155.81Z"/><path class="cls-2" d="M1630.91,110.5a111.29,111.29,0,0,1,80.67,76.78A111.31,111.31,0,0,1,1737.75,79a111.48,111.48,0,0,0-80.67-76.76,111.48,111.48,0,0,0-26.17,108.23Z"/><path class="cls-3" d="M1737.75,79a111.31,111.31,0,0,0-26.17,108.25A111.28,111.28,0,0,0,1737.75,79Z"/><path class="cls-2" d="M1636.24,325.55a110.82,110.82,0,0,0,49.18-30,111.32,111.32,0,0,1,26.16-108.26,111.3,111.3,0,0,1-106.83,31.48A111.45,111.45,0,0,0,1578.61,327,110.8,110.8,0,0,0,1636.24,325.55Z"/><path class="cls-3" d="M1685.42,295.54a111.3,111.3,0,0,0,26.16-108.26A111.32,111.32,0,0,0,1685.42,295.54Z"/><path class="cls-2" d="M1554.17,191.17a110.78,110.78,0,0,0,50.58,27.59,111.29,111.29,0,0,1,106.83-31.48,111.28,111.28,0,0,1-80.67-76.78A111.45,111.45,0,0,0,1524.11,142,110.8,110.8,0,0,0,1554.17,191.17Z"/><path class="cls-3" d="M1604.75,218.76a111.3,111.3,0,0,0,106.83-31.48A111.29,111.29,0,0,0,1604.75,218.76Z"/><path class="cls-3" d="M1630.91,110.5a111.28,111.28,0,0,0,80.67,76.78A111.29,111.29,0,0,0,1630.91,110.5Z"/><path class="cls-4" d="M974.28,255.23a100.36,100.36,0,0,1-44.54-43.73l-.13.13A100.46,100.46,0,0,1,902,266.93a101,101,0,0,0,54.5,105.46,101,101,0,0,0,17.8-117.16Z"/><path class="cls-4" d="M985,182.71a100.44,100.44,0,0,1-55,28.74,100.34,100.34,0,0,1,44.25,43.78,100.95,100.95,0,0,0,116.89-19.61A100.94,100.94,0,0,0,985,182.71Z"/><path class="cls-5" d="M929.74,211.5a100.36,100.36,0,0,0,44.54,43.73A100.34,100.34,0,0,0,930,211.45Z"/><path class="cls-4" d="M972.63,75.46a100.7,100.7,0,0,0-53.17,74.47,100.37,100.37,0,0,1,10.21,61.33l.2.1A100.51,100.51,0,0,1,985,182.71a100.92,100.92,0,0,0,17.53-117.29A100.5,100.5,0,0,0,972.63,75.46Z"/><path class="cls-5" d="M985,182.71a100.51,100.51,0,0,0-55.16,28.65l.16.09A100.44,100.44,0,0,0,985,182.71Z"/><path class="cls-4" d="M902,266.93a100.39,100.39,0,0,1,27.63-55.3.43.43,0,0,1,0-.11,100.46,100.46,0,0,1-61.93-9.42,101,101,0,0,0-82.81,84.54A101,101,0,0,0,902,266.93Z"/><path class="cls-5" d="M902,266.93a100.46,100.46,0,0,0,27.63-55.3A100.39,100.39,0,0,0,902,266.93Z"/><path class="cls-4" d="M867.7,202.1a100.49,100.49,0,0,1,61.9,9.12,100.3,100.3,0,0,1-10.14-61.29A100.92,100.92,0,0,0,813.35,96.84,100.94,100.94,0,0,0,867.7,202.1Z"/><path class="cls-5" d="M929.6,211.22a100.49,100.49,0,0,0-61.9-9.12,100.46,100.46,0,0,0,61.93,9.42l0-.18Z"/><path class="cls-5" d="M919.46,149.93a100.3,100.3,0,0,0,10.14,61.29l.07,0A100.37,100.37,0,0,0,919.46,149.93Z"/><circle class="cls-2" cx="1277.61" cy="234.94" r="135.75"/><circle class="cls-4" cx="1361.55" cy="98.04" r="89.16"/><circle class="cls-4" cx="679.44" cy="257.08" r="71.28"/><g class="cls-6"><circle class="cls-2" cx="606" cy="324.04" r="33.84"/></g><g class="cls-6"><circle class="cls-2" cx="735.6" cy="194.44" r="34.56"/></g><circle class="cls-7" cx="98.86" cy="76.99" r="71.7"/><circle class="cls-7" cx="75" cy="294.97" r="74.99"/><circle class="cls-8" cx="132.82" cy="210.02" r="46.2"/><circle class="cls-7" cx="1488.16" cy="315.88" r="53"/><circle class="cls-2" cx="1113.66" cy="99.38" r="63.5"/><circle class="cls-7" cx="665.66" cy="91.38" r="42.5"/><circle class="cls-2" cx="898.16" cy="48.88" r="41"/></g></g></g></g></svg>