<svg xmlns="http://www.w3.org/2000/svg" viewBox="0 0 746.07 259.37"><defs><style>.cls-1{isolation:isolate;}.cls-2{fill:#ff6;}.cls-3{fill:#ff0;}.cls-4,.cls-7{fill:#69f;}.cls-4,.cls-6{mix-blend-mode:multiply;}.cls-5{fill:#36f;}</style></defs><g class="cls-1"><g id="レイヤー_2" data-name="レイヤー 2"><g id="レイヤー_2-2" data-name="レイヤー 2"><g id="レイヤー_6" data-name="レイヤー 6"><path class="cls-2" d="M130.14,127.43a94.74,94.74,0,0,1,53.11,51.88,100.92,100.92,0,0,0,75.9-.87,94.75,94.75,0,0,0-53.1-51.88A101,101,0,0,1,130.14,127.43Z"/><path class="cls-2" d="M206.05,126.56a101,101,0,0,0,54.24-53.11,101,101,0,0,0-75.91.87,100.89,100.89,0,0,1-54.24,53.11A101,101,0,0,1,206.05,126.56Z"/><path class="cls-3" d="M206.05,126.56a101,101,0,0,0-75.91.87A101,101,0,0,0,206.05,126.56Z"/><path class="cls-2" d="M184.38,74.32A94.77,94.77,0,0,0,185.19.09,100.91,100.91,0,0,0,131,53.19a94.76,94.76,0,0,1-.81,74.24A101,101,0,0,1,184.38,74.32Z"/><path class="cls-3" d="M184.38,74.32a101,101,0,0,0-54.24,53.11A100.89,100.89,0,0,0,184.38,74.32Z"/><path class="cls-2" d="M131,53.19A94.76,94.76,0,0,0,77.84,1.32,94.69,94.69,0,0,0,77,75.55a94.72,94.72,0,0,1,53.1,51.88A94.79,94.79,0,0,1,131,53.19Z"/><path class="cls-3" d="M131,53.19a94.79,94.79,0,0,0-.81,74.24A94.76,94.76,0,0,0,131,53.19Z"/><path class="cls-2" d="M77,75.55a100.92,100.92,0,0,0-75.9.87,94.72,94.72,0,0,0,53.1,51.88,100.94,100.94,0,0,1,75.9-.87A94.72,94.72,0,0,1,77,75.55Z"/><path class="cls-3" d="M77,75.55a94.72,94.72,0,0,0,53.1,51.88A94.72,94.72,0,0,0,77,75.55Z"/><path class="cls-2" d="M129.34,201.66a94.77,94.77,0,0,0,53.11,51.88,94.78,94.78,0,0,0,.8-74.23,94.83,94.83,0,0,1-53.11-51.88A94.73,94.73,0,0,1,129.34,201.66Z"/><path class="cls-3" d="M183.25,179.31a94.74,94.74,0,0,0-53.11-51.88A94.83,94.83,0,0,0,183.25,179.31Z"/><path class="cls-2" d="M75.9,180.53a94.79,94.79,0,0,0-.8,74.24,100.93,100.93,0,0,0,54.24-53.11,94.78,94.78,0,0,1,.8-74.23A100.89,100.89,0,0,1,75.9,180.53Z"/><path class="cls-3" d="M129.34,201.66a94.73,94.73,0,0,0,.8-74.23A94.78,94.78,0,0,0,129.34,201.66Z"/><path class="cls-2" d="M54.24,128.3A101,101,0,0,0,0,181.4a100.94,100.94,0,0,0,75.9-.87,100.94,100.94,0,0,1,54.24-53.1A100.92,100.92,0,0,1,54.24,128.3Z"/><path class="cls-3" d="M75.9,180.53a100.89,100.89,0,0,0,54.24-53.1A100.94,100.94,0,0,0,75.9,180.53Z"/><path class="cls-3" d="M54.24,128.3a100.92,100.92,0,0,0,75.9-.87A100.94,100.94,0,0,0,54.24,128.3Z"/><path class="cls-2" d="M679.88,162.24a69,69,0,0,1-50-47.59,69,69,0,0,1-16.22,67.09,69.1,69.1,0,0,0,50,47.57,69.07,69.07,0,0,0,16.22-67.07Z"/><path class="cls-2" d="M727.44,112.25a68.67,68.67,0,0,0-31.34-17.1,69,69,0,0,1-66.21,19.5,69,69,0,0,1,50,47.59,69,69,0,0,0,66.19-19.51A68.6,68.6,0,0,0,727.44,112.25Z"/><path class="cls-3" d="M629.89,114.65a69,69,0,0,0,50,47.59A69,69,0,0,0,629.89,114.65Z"/><path class="cls-2" d="M676.58,29A68.76,68.76,0,0,0,646.1,47.56a69,69,0,0,1-16.21,67.09,69,69,0,0,1,66.21-19.5,69.05,69.05,0,0,0,16.19-67.07A68.56,68.56,0,0,0,676.58,29Z"/><path class="cls-3" d="M696.1,95.15a69,69,0,0,0-66.21,19.5A69,69,0,0,0,696.1,95.15Z"/><path class="cls-2" d="M579.89,67.07a69,69,0,0,1,50,47.58A69,69,0,0,1,646.1,47.56,69.07,69.07,0,0,0,596.11,0a69.11,69.11,0,0,0-16.22,67.07Z"/><path class="cls-3" d="M646.1,47.56a69,69,0,0,0-16.21,67.09A69,69,0,0,0,646.1,47.56Z"/><path class="cls-2" d="M583.2,200.34a68.6,68.6,0,0,0,30.47-18.6,69,69,0,0,1,16.22-67.09,69,69,0,0,1-66.21,19.51,69.09,69.09,0,0,0-16.2,67.07A68.7,68.7,0,0,0,583.2,200.34Z"/><path class="cls-3" d="M613.67,181.74a69,69,0,0,0,16.22-67.09A69,69,0,0,0,613.67,181.74Z"/><path class="cls-2" d="M532.33,117.06a68.79,68.79,0,0,0,31.35,17.1,69,69,0,0,1,66.21-19.51,69,69,0,0,1-50-47.58,69,69,0,0,0-66.18,19.51A68.72,68.72,0,0,0,532.33,117.06Z"/><path class="cls-3" d="M563.68,134.16a69,69,0,0,0,66.21-19.51A69,69,0,0,0,563.68,134.16Z"/><path class="cls-3" d="M579.89,67.07a69,69,0,0,0,50,47.58A69,69,0,0,0,579.89,67.07Z"/><path class="cls-4" d="M408,186.76a62.23,62.23,0,0,1-27.61-27.1l-.07.08A62.21,62.21,0,0,1,363.16,194a62.58,62.58,0,0,0,33.78,65.36,62.58,62.58,0,0,0,11-72.61Z"/><path class="cls-4" d="M414.63,141.82a62.19,62.19,0,0,1-34.08,17.81A62.22,62.22,0,0,1,408,186.76a62.58,62.58,0,0,0,72.44-12.15,62.59,62.59,0,0,0-65.78-32.79Z"/><path class="cls-5" d="M380.36,159.66A62.23,62.23,0,0,0,408,186.76a62.22,62.22,0,0,0-27.42-27.13Z"/><path class="cls-4" d="M406.94,75.35A62.41,62.41,0,0,0,374,121.5a62.22,62.22,0,0,1,6.32,38l.13.07a62.17,62.17,0,0,1,34.18-17.76A62.56,62.56,0,0,0,425.5,69.13,62.72,62.72,0,0,0,406.94,75.35Z"/><path class="cls-5" d="M414.63,141.82a62.17,62.17,0,0,0-34.18,17.76l.1,0A62.19,62.19,0,0,0,414.63,141.82Z"/><path class="cls-4" d="M363.16,194a62.24,62.24,0,0,1,17.13-34.27v-.07a62.24,62.24,0,0,1-38.38-5.83,62.53,62.53,0,0,0-51.32,52.38A62.53,62.53,0,0,0,363.16,194Z"/><path class="cls-5" d="M363.16,194a62.21,62.21,0,0,0,17.13-34.27A62.24,62.24,0,0,0,363.16,194Z"/><path class="cls-4" d="M341.92,153.84a62.19,62.19,0,0,1,38.36,5.65,62.15,62.15,0,0,1-6.28-38,62.57,62.57,0,0,0-65.76-32.9,62.54,62.54,0,0,0,33.68,65.24Z"/><path class="cls-5" d="M380.28,159.49a62.19,62.19,0,0,0-38.36-5.65,62.24,62.24,0,0,0,38.38,5.83s0-.07,0-.11Z"/><path class="cls-5" d="M374,121.5a62.15,62.15,0,0,0,6.28,38l0,0A62.22,62.22,0,0,0,374,121.5Z"/><circle class="cls-2" cx="288.05" cy="43.3" r="29.4"/><circle class="cls-4" cx="314.11" cy="20.27" r="19.31"/><circle class="cls-4" cx="471.38" cy="55.24" r="27.61"/><g class="cls-6"><circle class="cls-2" cx="445.44" cy="29.79" r="13.11"/></g><g class="cls-6"><circle class="cls-2" cx="495.64" cy="76.99" r="13.39"/></g><ellipse class="cls-7" cx="715.3" cy="230.16" rx="26.97" ry="27.04"/><ellipse class="cls-2" cx="498.52" cy="226.83" rx="28.18" ry="27.7"/><ellipse class="cls-7" cx="248.94" cy="229.12" rx="24.6" ry="25"/><circle class="cls-2" cx="25.8" cy="28.89" r="25.41"/></g></g></g></g></svg>