<?xml version="1.0" encoding="UTF-8"?>
<svg xmlns="http://www.w3.org/2000/svg" viewBox="0 0 1495.51 237.73">
  <defs>
    <style>
      .cls-1, .cls-2, .cls-3 {
        mix-blend-mode: multiply;
      }

      .cls-1, .cls-4 {
        fill: #ff6;
      }

      .cls-5 {
        isolation: isolate;
      }

      .cls-2, .cls-6 {
        fill: #69f;
      }

      .cls-7 {
        fill: #36f;
      }

      .cls-8 {
        fill: #ff0;
      }
    </style>
  </defs>
  <g class="cls-5">
    <g id="_レイヤー_2" data-name="レイヤー 2">
      <g id="_レイヤー_2-2" data-name="レイヤー 2">
        <g id="_レイヤー_8" data-name="レイヤー 8">
          <g>
            <path class="cls-4" d="M1426.9,168.2c-24.01-5.82-44.35-23.93-51.83-49.33,7.48,25.4,.21,51.65-16.81,69.55,3.43,11.66,9.87,22.6,19.31,31.58,9.44,8.99,20.7,14.88,32.52,17.73,8.39-8.8,14.65-19.86,17.71-32.53,3.06-12.66,2.54-25.35-.9-37Z"/>
            <path class="cls-4" d="M1476.2,116.37c-9.44-8.98-20.68-14.88-32.5-17.72-17.05,17.88-42.9,26.44-68.64,20.22,25.74,6.22,44.83,25.64,51.83,49.33,11.81,2.86,24.51,2.75,37-.93,12.5-3.68,23.24-10.48,31.61-19.3-3.42-11.67-9.87-22.62-19.31-31.6Z"/>
            <path class="cls-8" d="M1375.07,118.86c7.48,25.4,27.82,43.51,51.83,49.33-7-23.69-26.09-43.11-51.83-49.33Z"/>
            <path class="cls-4" d="M1423.47,30.03c-12.5,3.68-23.23,10.47-31.6,19.28,6.96,23.7,1.45,50.37-16.81,69.55,18.26-19.18,44.62-26.01,68.64-20.22,8.38-8.8,14.64-19.85,17.7-32.51,3.06-12.67,2.54-25.37-.91-37.03-11.82-2.87-24.52-2.76-37.03,.92Z"/>
            <path class="cls-8" d="M1443.71,98.65c-24.02-5.79-50.38,1.04-68.64,20.22,25.74,6.22,51.59-2.34,68.64-20.22Z"/>
            <path class="cls-4" d="M1323.24,69.53c24.01,5.82,44.35,23.93,51.83,49.33-7.48-25.4-.21-51.65,16.81-69.55-3.43-11.66-9.87-22.6-19.31-31.58-9.44-8.99-20.7-14.88-32.52-17.73-8.39,8.8-14.65,19.86-17.71,32.53s-2.54,25.35,.9,37Z"/>
            <path class="cls-8" d="M1391.88,49.31c-17.02,17.91-24.29,44.15-16.81,69.55,18.26-19.18,23.77-45.85,16.81-69.55Z"/>
            <path class="cls-4" d="M1326.66,207.7c12.5-3.68,23.23-10.47,31.6-19.28-6.96-23.7-1.45-50.37,16.81-69.55-18.26,19.18-44.62,26.01-68.64,20.22-8.38,8.8-14.64,19.85-17.7,32.51-3.06,12.67-2.54,25.37,.91,37.03,11.82,2.87,24.52,2.76,37.03-.92Z"/>
            <path class="cls-8" d="M1358.26,188.42c17.02-17.91,24.29-44.15,16.81-69.55-18.26,19.18-23.77,45.85-16.81,69.55Z"/>
            <path class="cls-4" d="M1273.93,121.36c9.44,8.98,20.68,14.88,32.5,17.72,17.05-17.88,42.9-26.44,68.64-20.22-25.74-6.22-44.83-25.64-51.83-49.33-11.81-2.86-24.51-2.75-37,.93-12.5,3.68-23.24,10.48-31.61,19.3,3.42,11.67,9.87,22.62,19.31,31.6Z"/>
            <path class="cls-8" d="M1306.43,139.08c24.02,5.79,50.38-1.04,68.64-20.22-25.74-6.22-51.59,2.34-68.64,20.22Z"/>
            <path class="cls-8" d="M1323.24,69.53c7,23.69,26.09,43.11,51.83,49.33-7.48-25.4-27.82-43.51-51.83-49.33Z"/>
          </g>
          <g>
            <path class="cls-2" d="M926.37,160.52c-11.86-5.89-22.03-15.45-28.62-28.1-.03,.03-.05,.06-.08,.09-2.14,13.94-8.57,26.16-17.75,35.53-3.03,19.87,3.2,40.87,18.64,56.03,4.95,4.87,10.49,8.77,16.38,11.72,4.69-4.75,8.72-10.31,11.86-16.61,9.58-19.22,8.72-40.92-.42-58.66Z"/>
            <path class="cls-2" d="M933.27,113.93c-9.22,9.4-21.37,16.08-35.33,18.46,12.69,6.39,22.37,16.39,28.43,28.13,17.92,8.89,39.69,9.4,58.79-.54,6.2-3.23,11.66-7.33,16.31-12.06-3.06-5.89-7.09-11.4-12.08-16.3-15.37-15.11-36.37-20.98-56.12-17.69Z"/>
            <path class="cls-7" d="M897.75,132.42c6.58,12.65,16.76,22.21,28.62,28.1-6.05-11.74-15.74-21.74-28.43-28.13-.06,.01-.13,.02-.19,.03Z"/>
            <path class="cls-2" d="M925.31,45.02c-19.1,9.94-31.17,28.07-34.16,47.85,6.08,11.7,8.66,25.36,6.56,39.4,.04,.02,.09,.05,.13,.07,9.96-10.1,22.43-16.24,35.44-18.41,14.02-14.29,21.25-34.86,17.69-56.12-1.15-6.9-3.36-13.36-6.43-19.24-6.54,1.1-13.03,3.22-19.23,6.45Z"/>
            <path class="cls-7" d="M933.27,113.93c-13.01,2.17-25.47,8.31-35.44,18.41,.03,.02,.07,.04,.1,.05,13.96-2.38,26.11-9.06,35.33-18.46Z"/>
            <path class="cls-2" d="M879.91,168.03c1.97-12.96,7.88-25.45,17.75-35.53,0-.02,0-.05,.01-.07-14.11,2.35-27.92-.06-39.78-6.05-19.67,3.37-37.51,15.74-47.1,34.97-3.12,6.26-5.13,12.78-6.11,19.34,5.94,2.96,12.43,5.06,19.35,6.09,21.36,3.19,41.83-4.43,55.88-18.75Z"/>
            <path class="cls-7" d="M879.91,168.03c9.18-9.36,15.62-21.58,17.75-35.53-9.87,10.08-15.78,22.56-17.75,35.53Z"/>
            <path class="cls-2" d="M857.9,126.38c13.08-2.24,26.97-.5,39.76,5.86-6.51-12.6-8.48-26.35-6.51-39.38-9.25-17.8-26.6-31.07-47.96-34.27-6.89-1.03-13.69-.93-20.22,.16-1.01,6.61-1,13.5,.16,20.45,3.54,21.16,16.97,38.2,34.76,47.18Z"/>
            <path class="cls-7" d="M897.66,132.25c-12.79-6.37-26.68-8.1-39.76-5.86,11.87,5.99,25.67,8.4,39.78,6.05,0-.04,.01-.07,.02-.11-.01-.03-.03-.05-.04-.08Z"/>
            <path class="cls-7" d="M891.15,92.86c-1.97,13.03,0,26.78,6.51,39.38,.02,0,.03,.01,.05,.02,2.1-14.04-.48-27.7-6.56-39.4Z"/>
          </g>
          <g>
            <circle class="cls-4" cx="1111.25" cy="147.48" r="87.22"/>
            <circle class="cls-2" cx="1165.18" cy="59.53" r="57.28"/>
          </g>
          <g>
            <circle class="cls-2" cx="730.94" cy="163.71" r="45.8"/>
            <g class="cls-3">
              <circle class="cls-4" cx="683.76" cy="206.73" r="21.74"/>
            </g>
            <g class="cls-3">
              <circle class="cls-4" cx="767.02" cy="123.46" r="22.2"/>
            </g>
          </g>
          <circle class="cls-6" cx="1235.52" cy="201.49" r="34.05"/>
          <circle class="cls-4" cx="1002.92" cy="49.39" r="40.8"/>
          <circle class="cls-4" cx="879.46" cy="28.95" r="26.34"/>
          <g>
            <path class="cls-4" d="M239.75,118.93c23.44,9.27,40.61,27.04,49.41,48.27,21.72,8.59,46.98,9,70.63-.81-9.5-22.91-27.69-39.68-49.41-48.27-21.91,9.09-47.19,10.08-70.63,.81Z"/>
            <path class="cls-4" d="M310.38,118.12c21.91-9.09,40.47-26.28,50.47-49.41-23.44-9.27-48.71-8.28-70.63,.81-9.27,21.44-26.82,39.61-50.47,49.41,23.65-9.81,48.9-9.4,70.63-.81Z"/>
            <path class="cls-8" d="M310.38,118.12c-21.72-8.59-46.98-9-70.63,.81,23.44,9.27,48.71,8.28,70.63-.81Z"/>
            <path class="cls-4" d="M290.22,69.51c9.27-21.44,10.25-46.16,.75-69.07-23.65,9.81-41.2,27.97-50.47,49.41,8.81,21.24,9.25,45.94-.75,69.07,10-23.14,28.56-40.33,50.47-49.41Z"/>
            <path class="cls-8" d="M290.22,69.51c-21.91,9.09-40.47,26.28-50.47,49.41,23.65-9.81,41.2-27.97,50.47-49.41Z"/>
            <path class="cls-4" d="M240.5,49.85c-8.81-21.24-25.97-39-49.41-48.27-10,23.14-9.55,47.84-.75,69.07,21.72,8.59,39.91,25.36,49.41,48.27-9.5-22.91-8.52-47.63,.75-69.07Z"/>
            <path class="cls-8" d="M240.5,49.85c-9.27,21.44-10.25,46.16-.75,69.07,10-23.14,9.55-47.84,.75-69.07Z"/>
            <path class="cls-4" d="M190.34,70.66c-21.72-8.59-46.98-9-70.63,.81,9.5,22.91,27.69,39.68,49.41,48.27,21.91-9.09,47.19-10.08,70.63-.81-23.44-9.27-40.61-27.04-49.41-48.27Z"/>
            <path class="cls-8" d="M190.34,70.66c8.81,21.24,25.97,39,49.41,48.27-9.5-22.91-27.69-39.68-49.41-48.27Z"/>
            <path class="cls-4" d="M239,188c8.81,21.24,25.97,39,49.41,48.27,10-23.14,9.55-47.84,.75-69.07-21.72-8.59-39.91-25.36-49.41-48.27,9.5,22.91,8.52,47.63-.75,69.07Z"/>
            <path class="cls-8" d="M289.16,167.2c-8.81-21.24-25.97-39-49.41-48.27,9.5,22.91,27.69,39.68,49.41,48.27Z"/>
            <path class="cls-4" d="M189.28,168.34c-9.27,21.44-10.25,46.16-.75,69.07,23.65-9.81,41.2-27.97,50.47-49.41-8.81-21.24-9.25-45.94,.75-69.07-10,23.14-28.56,40.33-50.47,49.41Z"/>
            <path class="cls-8" d="M239,188c9.27-21.44,10.25-46.16,.75-69.07-10,23.14-9.55,47.84-.75,69.07Z"/>
            <path class="cls-4" d="M169.12,119.74c-21.91,9.09-40.47,26.28-50.47,49.41,23.44,9.27,48.71,8.28,70.63-.81,9.27-21.44,26.82-39.61,50.47-49.41-23.65,9.81-48.9,9.4-70.63,.81Z"/>
            <path class="cls-8" d="M189.28,168.34c21.91-9.09,40.47-26.28,50.47-49.41-23.65,9.81-41.2,27.97-50.47,49.41Z"/>
            <path class="cls-8" d="M169.12,119.74c21.72,8.59,46.98,9,70.63-.81-23.44-9.27-48.71-8.28-70.63,.81Z"/>
          </g>
          <g>
            <path class="cls-2" d="M555.37,78.77c11.86,5.89,22.03,15.45,28.62,28.1,.03-.03,.05-.06,.08-.09,2.14-13.94,8.57-26.16,17.75-35.53,3.03-19.87-3.2-40.87-18.64-56.03-4.95-4.87-10.49-8.77-16.38-11.72-4.69,4.75-8.72,10.31-11.86,16.61-9.58,19.22-8.72,40.92,.42,58.66Z"/>
            <path class="cls-2" d="M548.46,125.37c9.22-9.4,21.37-16.08,35.33-18.46-12.69-6.39-22.37-16.39-28.43-28.13-17.92-8.89-39.69-9.4-58.79,.54-6.2,3.23-11.66,7.33-16.31,12.06,3.06,5.89,7.09,11.4,12.08,16.3,15.37,15.11,36.37,20.98,56.12,17.69Z"/>
            <path class="cls-7" d="M583.99,106.87c-6.58-12.65-16.76-22.21-28.62-28.1,6.05,11.74,15.74,21.74,28.43,28.13,.06-.01,.13-.02,.19-.03Z"/>
            <path class="cls-2" d="M556.43,194.28c19.1-9.94,31.17-28.07,34.16-47.85-6.08-11.7-8.66-25.36-6.56-39.4-.04-.02-.09-.05-.13-.07-9.96,10.1-22.43,16.24-35.44,18.41-14.02,14.29-21.25,34.86-17.69,56.12,1.15,6.9,3.36,13.36,6.43,19.24,6.54-1.1,13.03-3.22,19.23-6.45Z"/>
            <path class="cls-7" d="M548.46,125.37c13.01-2.17,25.47-8.31,35.44-18.41-.03-.02-.07-.04-.1-.05-13.96,2.38-26.11,9.06-35.33,18.46Z"/>
            <path class="cls-2" d="M601.82,71.26c-1.97,12.96-7.88,25.45-17.75,35.53,0,.02,0,.05-.01,.07,14.11-2.35,27.92,.06,39.78,6.05,19.67-3.37,37.51-15.74,47.1-34.97,3.12-6.26,5.13-12.78,6.11-19.34-5.94-2.96-12.43-5.06-19.35-6.09-21.36-3.19-41.83,4.43-55.88,18.75Z"/>
            <path class="cls-7" d="M601.82,71.26c-9.18,9.36-15.62,21.58-17.75,35.53,9.87-10.08,15.78-22.56,17.75-35.53Z"/>
            <path class="cls-2" d="M623.84,112.91c-13.08,2.24-26.97,.5-39.76-5.86,6.51,12.6,8.48,26.35,6.51,39.38,9.25,17.8,26.6,31.07,47.96,34.27,6.89,1.03,13.69,.93,20.22-.16,1.01-6.61,1-13.5-.16-20.45-3.54-21.16-16.97-38.2-34.76-47.18Z"/>
            <path class="cls-7" d="M584.08,107.05c12.79,6.37,26.68,8.1,39.76,5.86-11.87-5.99-25.67-8.4-39.78-6.05,0,.04-.01,.07-.02,.11,.01,.03,.03,.05,.04,.08Z"/>
            <path class="cls-7" d="M590.59,146.43c1.97-13.03,0-26.78-6.51-39.38-.02,0-.03-.01-.05-.02-2.1,14.04,.48,27.7,6.56,39.4Z"/>
          </g>
          <g>
            <circle class="cls-2" cx="422.53" cy="163.61" r="45.8"/>
            <g class="cls-3">
              <circle class="cls-4" cx="375.34" cy="206.63" r="21.74"/>
            </g>
            <g class="cls-3">
              <circle class="cls-4" cx="458.61" cy="123.36" r="22.2"/>
            </g>
          </g>
          <circle class="cls-6" cx="63.51" cy="47.91" r="46.06"/>
          <g>
            <circle class="cls-6" cx="48.19" cy="187.95" r="48.18"/>
            <circle class="cls-1" cx="85.33" cy="133.37" r="29.68"/>
          </g>
          <ellipse class="cls-4" cx="738.36" cy="50.09" rx="40.93" ry="41"/>
          <circle class="cls-6" cx="413.67" cy="57.15" r="27.31"/>
          <circle class="cls-4" cx="592.27" cy="210.35" r="26.34"/>
        </g>
      </g>
    </g>
  </g>
</svg>