<svg xmlns="http://www.w3.org/2000/svg" viewBox="0 0 370.46 221.2"><defs><style>.cls-1{isolation:isolate;}.cls-2{fill:#ff6;}.cls-3{fill:#ff0;}.cls-4,.cls-7{fill:#69f;}.cls-4,.cls-6{mix-blend-mode:multiply;}.cls-5{fill:#36f;}</style></defs><g class="cls-1"><g id="レイヤー_2" data-name="レイヤー 2"><g id="レイヤー_2-2" data-name="レイヤー 2"><g id="レイヤー_7" data-name="レイヤー 7"><path class="cls-2" d="M92.88,126.23a67.63,67.63,0,0,1,37.91,37,72,72,0,0,0,54.17-.62,67.65,67.65,0,0,0-37.9-37A72.07,72.07,0,0,1,92.88,126.23Z"/><path class="cls-2" d="M147.06,125.61a72.06,72.06,0,0,0,38.71-37.9,72,72,0,0,0-54.17.62,72.06,72.06,0,0,1-38.72,37.9A72.05,72.05,0,0,1,147.06,125.61Z"/><path class="cls-3" d="M147.06,125.61a72.05,72.05,0,0,0-54.18.62A72.07,72.07,0,0,0,147.06,125.61Z"/><path class="cls-2" d="M131.6,88.33a67.67,67.67,0,0,0,.57-53,72,72,0,0,0-38.71,37.9,67.59,67.59,0,0,1-.58,53A72.08,72.08,0,0,1,131.6,88.33Z"/><path class="cls-3" d="M131.6,88.33a72.08,72.08,0,0,0-38.72,37.9A72.06,72.06,0,0,0,131.6,88.33Z"/><path class="cls-2" d="M93.46,73.25a67.66,67.66,0,0,0-37.9-37,67.64,67.64,0,0,0-.58,53,67.58,67.58,0,0,1,37.9,37A67.66,67.66,0,0,1,93.46,73.25Z"/><path class="cls-3" d="M93.46,73.25a67.66,67.66,0,0,0-.58,53A67.59,67.59,0,0,0,93.46,73.25Z"/><path class="cls-2" d="M55,89.2a72.08,72.08,0,0,0-54.17.62,67.64,67.64,0,0,0,37.9,37,72,72,0,0,1,54.17-.62A67.66,67.66,0,0,1,55,89.2Z"/><path class="cls-3" d="M55,89.2a67.66,67.66,0,0,0,37.9,37A67.58,67.58,0,0,0,55,89.2Z"/><path class="cls-2" d="M92.31,179.21a67.58,67.58,0,0,0,37.9,37,67.64,67.64,0,0,0,.58-53,67.64,67.64,0,0,1-37.91-37A67.62,67.62,0,0,1,92.31,179.21Z"/><path class="cls-3" d="M130.79,163.25a67.63,67.63,0,0,0-37.91-37A67.64,67.64,0,0,0,130.79,163.25Z"/><path class="cls-2" d="M54.17,164.13a67.62,67.62,0,0,0-.57,53,72,72,0,0,0,38.71-37.9,67.64,67.64,0,0,1,.57-53A72.06,72.06,0,0,1,54.17,164.13Z"/><path class="cls-3" d="M92.31,179.21a67.62,67.62,0,0,0,.57-53A67.64,67.64,0,0,0,92.31,179.21Z"/><path class="cls-2" d="M38.71,126.85A72,72,0,0,0,0,164.75a72,72,0,0,0,54.17-.62,72,72,0,0,1,38.71-37.9A72,72,0,0,1,38.71,126.85Z"/><path class="cls-3" d="M54.17,164.13a72.06,72.06,0,0,0,38.71-37.9A72,72,0,0,0,54.17,164.13Z"/><path class="cls-3" d="M38.71,126.85a72,72,0,0,0,54.17-.62A72,72,0,0,0,38.71,126.85Z"/><path class="cls-2" d="M334.34,88.56a37.64,37.64,0,0,1-27.29-26A37.65,37.65,0,0,1,298.2,99.2a37.67,37.67,0,0,0,27.28,26,37.69,37.69,0,0,0,8.86-36.6Z"/><path class="cls-2" d="M360.3,61.27a37.5,37.5,0,0,0-17.11-9.33,37.66,37.66,0,0,1-36.14,10.64,37.67,37.67,0,0,1,27.29,26,37.7,37.7,0,0,0,36.12-10.65A37.41,37.41,0,0,0,360.3,61.27Z"/><path class="cls-3" d="M307.05,62.58a37.64,37.64,0,0,0,27.29,26A37.67,37.67,0,0,0,307.05,62.58Z"/><path class="cls-2" d="M332.53,15.81A37.47,37.47,0,0,0,315.9,26a37.67,37.67,0,0,1-8.85,36.62,37.63,37.63,0,0,1,36.14-10.64A37.75,37.75,0,0,0,352,15.33,37.5,37.5,0,0,0,332.53,15.81Z"/><path class="cls-3" d="M343.19,51.94a37.63,37.63,0,0,0-36.14,10.64A37.66,37.66,0,0,0,343.19,51.94Z"/><path class="cls-2" d="M279.76,36.61a37.65,37.65,0,0,1,27.29,26A37.65,37.65,0,0,1,315.9,26,37.71,37.71,0,0,0,288.61,0a37.74,37.74,0,0,0-8.85,36.61Z"/><path class="cls-3" d="M315.9,26a37.65,37.65,0,0,0-8.85,36.62A37.67,37.67,0,0,0,315.9,26Z"/><path class="cls-2" d="M281.56,109.35A37.41,37.41,0,0,0,298.2,99.2a37.62,37.62,0,0,1,8.85-36.62,37.68,37.68,0,0,1-36.14,10.65,37.68,37.68,0,0,0-8.84,36.61A37.47,37.47,0,0,0,281.56,109.35Z"/><path class="cls-3" d="M298.2,99.2a37.65,37.65,0,0,0,8.85-36.62A37.62,37.62,0,0,0,298.2,99.2Z"/><path class="cls-2" d="M253.8,63.9a37.59,37.59,0,0,0,17.11,9.33,37.65,37.65,0,0,1,36.14-10.65,37.62,37.62,0,0,1-27.29-26,37.72,37.72,0,0,0-36.13,10.65A37.54,37.54,0,0,0,253.8,63.9Z"/><path class="cls-3" d="M270.91,73.23a37.68,37.68,0,0,0,36.14-10.65A37.65,37.65,0,0,0,270.91,73.23Z"/><path class="cls-3" d="M279.76,36.61a37.62,37.62,0,0,0,27.29,26A37.65,37.65,0,0,0,279.76,36.61Z"/><path class="cls-4" d="M276.6,181.68a33.94,33.94,0,0,1-15-14.76l0,.05a33.84,33.84,0,0,1-9.32,18.65,34,34,0,0,0,18.38,35.58,34,34,0,0,0,6-39.52Z"/><path class="cls-4" d="M280.22,157.21a33.76,33.76,0,0,1-18.55,9.69,33.92,33.92,0,0,1,14.93,14.78,34,34,0,0,0,30.87-.29,33.62,33.62,0,0,0,8.56-6.33,34.05,34.05,0,0,0-35.81-17.85Z"/><path class="cls-5" d="M261.57,166.92a33.94,33.94,0,0,0,15,14.76,33.92,33.92,0,0,0-14.93-14.78Z"/><path class="cls-4" d="M276,121a34,34,0,0,0-17.94,25.12,33.84,33.84,0,0,1,3.45,20.69l.07,0a33.83,33.83,0,0,1,18.6-9.67,34,34,0,0,0,5.92-39.57A33.73,33.73,0,0,0,276,121Z"/><path class="cls-5" d="M280.22,157.21a33.83,33.83,0,0,0-18.6,9.67l.05,0A33.76,33.76,0,0,0,280.22,157.21Z"/><path class="cls-4" d="M252.21,185.62A33.84,33.84,0,0,1,261.53,167v0a33.85,33.85,0,0,1-20.89-3.18,34.06,34.06,0,0,0-27.94,28.52,34.05,34.05,0,0,0,39.51-6.65Z"/><path class="cls-5" d="M252.21,185.62A33.84,33.84,0,0,0,261.53,167,33.84,33.84,0,0,0,252.21,185.62Z"/><path class="cls-4" d="M240.64,163.75a33.87,33.87,0,0,1,20.88,3.08,33.91,33.91,0,0,1-3.42-20.68,34.07,34.07,0,0,0-35.8-17.91,34.08,34.08,0,0,0,18.34,35.51Z"/><path class="cls-5" d="M261.52,166.83a33.87,33.87,0,0,0-20.88-3.08,33.85,33.85,0,0,0,20.89,3.18v-.06Z"/><path class="cls-5" d="M258.1,146.15a33.91,33.91,0,0,0,3.42,20.68h0A33.84,33.84,0,0,0,258.1,146.15Z"/><circle class="cls-2" cx="97.18" cy="26.94" r="18.58"/><circle class="cls-4" cx="113.65" cy="12.39" r="12.2"/><circle class="cls-4" cx="190.29" cy="43.75" r="28.5"/><g class="cls-6"><circle class="cls-2" cx="161.16" cy="23.9" r="13.53"/></g><g class="cls-6"><circle class="cls-2" cx="218.48" cy="58.15" r="13.82"/></g><ellipse class="cls-2" cx="342.85" cy="193.21" rx="22.78" ry="22.83"/><ellipse class="cls-2" cx="221.83" cy="104.39" rx="14.38" ry="14.13"/><ellipse class="cls-7" cx="178.43" cy="202.12" rx="15.96" ry="16.22"/><circle class="cls-4" cx="23.01" cy="23.83" r="17.45"/></g></g></g></g></svg>