<?xml version="1.0" encoding="UTF-8"?>
<svg id="_レイヤー_1" data-name="レイヤー 1" xmlns="http://www.w3.org/2000/svg" xmlns:xlink="http://www.w3.org/1999/xlink" viewBox="0 0 674 120">
  <defs>
    <style>
      .cls-1 {
        fill: #fff;
      }

      .cls-2 {
        fill: #006837;
      }

      .cls-3 {
        clip-path: url(#clippath);
      }

      .cls-4 {
        fill: none;
      }
    </style>
    <clipPath id="clippath">
      <rect class="cls-4" width="674" height="120" rx="10" ry="10"/>
    </clipPath>
  </defs>
  <g class="cls-3">
    <g>
      <rect class="cls-2" width="674" height="120" rx="10" ry="10"/>
      <g>
        <path class="cls-1" d="M142.52,46.96c-.04,.97-.09,2.02-.13,3.12,2.9-.35,5.79-.92,8.07-1.58l.13,5.46c-2.5,.57-5.53,1.01-8.38,1.36-.04,1.32-.04,2.68-.04,3.96v1.63c2.98-.75,6.01-1.14,8.42-1.14,6.76,0,12.06,3.52,12.06,9.59,0,5.19-2.72,9.11-9.7,10.87-2.02,.44-3.95,.57-5.75,.7l-2.02-5.68c1.97,0,3.86-.04,5.4-.31,3.55-.66,6.36-2.42,6.36-5.63,0-2.99-2.63-4.75-6.45-4.75-2.72,0-5.57,.44-8.25,1.23,.09,3.48,.18,6.91,.18,8.41,0,5.46-1.93,6.91-4.83,6.91-4.26,0-10.27-3.7-10.27-8.36,0-3.83,4.39-7.83,9.78-10.17-.04-1.06-.04-2.11-.04-3.12v-3.7c-.83,.04-1.62,.09-2.33,.09-2.94,0-4.65-.04-6.14-.22l-.09-5.32c2.59,.31,4.47,.35,6.05,.35,.79,0,1.67-.04,2.54-.09,.04-1.54,.04-2.82,.04-3.56,0-.92-.18-3.08-.31-3.87h6.05c-.13,.79-.31,2.68-.4,3.83Zm-6.58,28.12c.79,0,1.4-.35,1.4-1.85,0-1.1-.04-3.12-.13-5.5-2.68,1.45-4.47,3.26-4.47,4.8,0,1.36,2.06,2.55,3.2,2.55Zm30.27-20.99l-2.63,4.49c-2.11-1.8-7.85-5.1-10.57-6.42l2.41-4.27c3.38,1.63,8.47,4.53,10.79,6.21Z"/>
        <path class="cls-1" d="M184.99,52.98h-15.88v-4.14h15.88v4.14Zm-1.1,27.37h-8.64v1.72h-4.3v-15.01h12.94v13.29Zm-12.81-25.39h12.9v4h-12.9v-4Zm0,6.03h12.9v3.92h-12.9v-3.92Zm12.63-14.08h-12.5v-3.96h12.5v3.96Zm-8.47,24.29v5.06h4.3v-5.06h-4.3Zm23.29,1.85l.35,4.31c-4.52,1.01-9.3,2.02-13.07,2.82l-1.05-4.8c1.32-.18,2.85-.44,4.52-.7v-10.78h-3.69v-4.49h11.93v4.49h-3.42v9.95l4.43-.79Zm4.61-18.4c.31,12.59,1.32,21.43,2.98,21.56,.57,0,.92-2.02,1.1-5.32,.79,1.14,2.85,2.6,3.64,3.12-1.14,7.17-3.33,8.71-4.96,8.67-5.44-.13-7.06-10.52-7.59-28.03h-12.68v-4.75h12.55c-.04-2.64-.09-5.37-.09-8.27h5v2.2l3.51-1.8c1.4,1.63,3.03,3.87,3.77,5.37l-3.77,2.11c-.66-1.5-2.15-3.83-3.51-5.54-.04,2.02-.04,4,0,5.94h6.49v4.75h-6.45Z"/>
        <path class="cls-1" d="M227.24,49.82c-.18,4.75-.53,14.61-.53,20.07,0,4.44,2.63,5.9,6.05,5.9,7.24,0,11.84-4.18,15-8.98l3.99,4.84c-2.81,4.22-9.04,10.12-19.04,10.12-7.19,0-11.84-3.17-11.84-10.69,0-5.9,.44-17.47,.44-21.25,0-2.07-.18-4.18-.57-5.94l7.06,.09c-.26,1.85-.48,4.09-.57,5.85Z"/>
        <path class="cls-1" d="M267.78,60.99c-3.9,.79-7.37,1.5-9.21,1.94l-1.05-5.77c2.06-.26,5.92-.92,10.27-1.72v-6.29c0-1.45-.13-3.7-.35-5.06h6.54c-.17,1.36-.4,3.56-.4,5.06v5.19c6.41-1.23,12.55-2.46,14.52-2.95,1.23-.26,2.28-.57,3.11-1.01l4.21,3.26c-.39,.62-1.05,1.63-1.45,2.42-1.93,3.65-5.92,9.68-9.08,12.81l-4.83-2.86c2.9-2.6,5.79-6.6,7.02-8.93-1.36,.31-7.28,1.45-13.51,2.73v11.66c0,2.73,.79,3.7,5.62,3.7s9.48-.62,13.82-1.5l-.17,5.98c-3.64,.53-8.91,.97-13.6,.97-10,0-11.45-2.42-11.45-7.61v-12.01Z"/>
        <path class="cls-1" d="M315.33,65.09l-5.35,2.02c-.75-2.38-2.94-8.23-3.99-10.17l5.26-1.89c1.1,2.24,3.2,7.57,4.08,10.03Zm21.23-5.94c-1.14,4.44-2.98,9.02-5.97,12.89-4.08,5.28-9.56,8.98-14.7,10.91l-4.61-4.71c4.83-1.28,10.92-4.62,14.56-9.2,2.98-3.74,5.09-9.59,5.62-15.09l6.14,1.98c-.53,1.41-.79,2.33-1.05,3.21Zm-11.54,3.21l-5.26,1.85c-.53-2.16-2.46-7.48-3.55-9.77l5.22-1.72c.83,1.89,2.98,7.61,3.6,9.64Z"/>
        <path class="cls-1" d="M356.92,49.33c0-1.54-.13-3.74-.44-5.28h6.84c-.17,1.54-.39,3.48-.39,5.28v6.51c5.88,1.72,14.3,4.84,18.34,6.82l-2.5,6.07c-4.52-2.38-11.1-4.93-15.84-6.56v12.45c0,1.28,.22,4.36,.39,6.16h-6.84c.26-1.76,.44-4.4,.44-6.16v-25.3Z"/>
        <path class="cls-1" d="M407.25,47.97c4.17-.22,8.55-.62,12.42-1.28l-.04,5.1c-4.17,.62-9.56,.97-14.3,1.1-.75,1.63-1.62,3.21-2.5,4.49,1.14-.53,3.51-.88,4.96-.88,2.68,0,4.87,1.14,5.83,3.39,2.28-1.06,4.12-1.8,5.92-2.6,1.71-.75,3.25-1.45,4.87-2.29l2.19,5.1c-1.4,.4-3.73,1.28-5.22,1.85-1.97,.79-4.47,1.76-7.15,2.99,.04,2.46,.13,5.72,.17,7.75h-5.26c.13-1.32,.17-3.43,.22-5.37-3.29,1.89-5.04,3.61-5.04,5.81,0,2.42,2.06,3.08,6.36,3.08,3.73,0,8.6-.48,12.46-1.23l-.18,5.68c-2.9,.4-8.29,.75-12.42,.75-6.89,0-11.98-1.67-11.98-7.35s5.26-9.15,10.27-11.75c-.66-1.1-1.84-1.5-3.07-1.5-2.46,0-5.18,1.41-6.84,3.04-1.32,1.32-2.59,2.9-4.08,4.84l-4.69-3.52c4.61-4.27,7.72-8.19,9.7-12.15h-.57c-1.8,0-5-.09-7.41-.26v-5.15c2.24,.35,5.48,.53,7.72,.53h2.11c.48-1.76,.79-3.48,.88-5.06l5.79,.48c-.22,1.1-.53,2.55-1.1,4.4Z"/>
        <path class="cls-1" d="M440.54,62.18c-1.75-1.54-5.44-3.48-8.33-4.62l2.68-3.96c2.85,.97,6.67,2.73,8.55,4.18l-2.9,4.4Zm5.66,6.12c-2.33,4.58-5.09,9.59-7.72,13.86l-4.43-3.52c2.37-3.3,5.7-8.76,8.29-13.86l3.86,3.52Zm-2.94-17.78c-1.67-1.54-5.31-3.65-8.16-4.84l2.85-3.92c2.81,1.06,6.54,2.95,8.38,4.49l-3.07,4.27Zm30.09,25.79v4.93h-28.29v-4.93h11.49v-8.05h-8.38v-4.93h8.38v-7.22h-9.96v-5.02h12.99c-2.28-1.94-5.66-4.09-8.55-5.54l3.47-4.05c3.55,1.63,8.16,4.4,10.4,6.56l-2.54,3.04h10.09v5.02h-10.44v7.22h8.86v4.93h-8.86v8.05h11.36Z"/>
        <path class="cls-1" d="M510.43,53.64c-2.37,6.51-5.57,11.84-9.61,16.24,4.52,3.48,10.05,6.07,16.71,7.57-1.27,1.28-2.94,3.74-3.73,5.24-7.06-1.8-12.77-4.75-17.37-8.67-4.78,3.83-10.44,6.69-17.11,8.8-.61-1.36-2.24-3.83-3.29-5.1,6.49-1.72,11.98-4.22,16.41-7.61-3.95-4.53-6.98-10.03-9.34-16.46h-6.27v-5.1h17.2v-6.95h5.31v6.95h17.42v5.1h-6.32Zm-21.54,0c1.89,4.75,4.47,8.98,7.85,12.54,3.16-3.43,5.66-7.57,7.54-12.54h-15.4Z"/>
        <path class="cls-1" d="M546.98,47.18c0,.35,0,.84-.04,1.36,4.43,0,10.44-.09,12.72-.04l-.04,5.19c-2.63-.13-6.71-.22-12.68-.22,0,2.24,.04,4.66,.04,6.6,1.05,1.67,1.58,3.74,1.58,6.03,0,5.72-3.33,13.03-14.04,16.02l-4.69-4.66c4.43-.92,8.29-2.38,10.7-5.02-.61,.13-1.27,.22-1.97,.22-3.38,0-7.55-2.73-7.55-8.1,0-4.97,3.99-8.23,8.77-8.23,.61,0,1.18,.04,1.75,.13,0-.97,0-1.98-.04-2.95-6.62,.09-13.47,.35-18.86,.66l-.13-5.32c5,0,12.99-.18,18.95-.26-.04-.57-.04-1.01-.09-1.36-.13-1.8-.31-3.3-.44-3.83h6.36c-.09,.7-.26,3.08-.31,3.78Zm-7.33,20.59c1.84,0,3.46-1.41,2.85-5.28-.61-1.01-1.67-1.54-2.85-1.54-1.71,0-3.38,1.19-3.38,3.52,0,2.02,1.62,3.3,3.38,3.3Z"/>
        <path class="cls-1" d="M576.15,45.55c2.33,0,11.71-.18,14.21-.4,1.8-.18,2.81-.31,3.33-.48l2.85,3.92c-1.01,.66-2.06,1.28-3.07,2.02-2.37,1.67-6.98,5.54-9.74,7.75,1.45-.35,2.76-.48,4.17-.48,7.46,0,13.12,4.67,13.12,11.09,0,6.95-5.26,12.45-15.88,12.45-6.1,0-10.7-2.82-10.7-7.22,0-3.56,3.2-6.87,7.85-6.87,5.44,0,8.73,3.34,9.34,7.53,2.41-1.28,3.64-3.3,3.64-5.98,0-3.96-3.95-6.65-9.12-6.65-6.71,0-11.1,3.56-15.79,8.93l-3.99-4.14c3.12-2.51,8.42-7,11.01-9.15,2.46-2.02,7.02-5.72,9.17-7.61-2.24,.04-8.29,.31-10.62,.44-1.18,.09-2.59,.22-3.6,.35l-.17-5.72c1.23,.18,2.76,.22,3.99,.22Zm7.9,30.85c.92,0,1.75-.04,2.54-.13-.26-2.86-1.89-4.71-4.25-4.71-1.67,0-2.72,1.01-2.72,2.11,0,1.63,1.8,2.73,4.43,2.73Z"/>
        <path class="cls-1" d="M655.78,62.27l-32.46,17.07-2.11-3.96,25.14-13.11v-.18l-25.14-13.11,2.11-3.96,32.46,17.07v.18Z"/>
      </g>
      <g>
        <rect class="cls-1" x="13" y="14" width="96" height="90" rx="10" ry="10"/>
        <g>
          <path class="cls-2" d="M38.1,46.71c-.46-.68-1.25-1.66-2.04-2.54v8.38h-2.81v-7.61c-.77,.79-1.54,1.47-2.3,2.05-.26-.68-1.01-2.03-1.46-2.52,2.33-1.59,4.68-4.32,6.14-7.1h-5.47v-2.5h3.1v-4.11h2.81v4.11h1.03l.46-.12,1.61,1.03c-.72,1.91-1.75,3.81-2.95,5.53,.19,.16,.41,.35,.65,.56,.62-.79,1.32-1.84,1.73-2.59l1.82,1.47c-.84,.79-1.58,1.63-2.23,2.29,.72,.68,1.37,1.28,1.63,1.56l-1.7,2.1Zm13.63-14.17s0,1.03-.02,1.4c-.22,11.67-.43,15.73-1.37,17-.62,.93-1.22,1.24-2.14,1.4-.86,.16-2.18,.14-3.48,.12-.05-.82-.38-2.05-.89-2.87,1.25,.09,2.38,.09,2.95,.09,.38,0,.62-.09,.89-.44,.67-.77,.94-4.53,1.1-14.08h-3.48c-.19,6.75-.84,13.47-6.19,17.42-.48-.75-1.37-1.66-2.11-2.19,4.92-3.36,5.28-9.27,5.4-15.22h-3.46v-2.61h12.79Z"/>
          <path class="cls-2" d="M75.27,31.51v21.01h-3.12v-1.24h-14.43v1.24h-2.98V31.51h20.52Zm-3.12,17.18v-14.33h-14.43v14.33h14.43Zm-2.33-11.58v8.87h-9.79v-8.87h9.79Zm-2.88,2.43h-4.22v4.04h4.22v-4.04Z"/>
          <path class="cls-2" d="M38.84,67.75c-.67,2.03-1.49,4.6-2.23,6.42,1.56,1.8,1.85,3.41,1.85,4.76,.02,1.54-.34,2.52-1.1,3.04-.38,.3-.89,.44-1.42,.54-.48,.07-1.06,.05-1.66,.05-.02-.7-.24-1.77-.65-2.47,.46,.02,.82,.02,1.13,.02,.26,0,.48-.07,.7-.21,.29-.21,.43-.65,.43-1.31,0-1.1-.36-2.54-1.78-4.11,.5-1.49,1.06-3.6,1.49-5.23h-2.11v18.33h-2.66v-20.8h5.66l.41-.12,1.94,1.1Zm12.96,11.6c-1.03,.96-2.21,1.96-3.24,2.73,.96,1.33,2.21,2.38,3.77,3.06-.62,.56-1.46,1.61-1.85,2.36-3.53-1.82-5.4-5.3-6.48-9.85h-1.73v6.02c1.13-.19,2.3-.4,3.46-.61l.22,2.43c-2.76,.63-5.71,1.21-7.97,1.7l-.94-2.69c.72-.09,1.56-.23,2.5-.37v-17.35h11.14v10.86h-4.18c.24,.86,.55,1.7,.91,2.48,.79-.75,1.61-1.59,2.16-2.31l2.23,1.54Zm-9.53-10.16v1.84h5.57v-1.84h-5.57Zm0,6.07h5.57v-1.96h-5.57v1.96Z"/>
          <path class="cls-2" d="M66.47,84.42c.86,.09,1.78,.14,2.74,.14,1.3,0,5.26,0,6.86-.07-.41,.68-.86,2.01-1.01,2.83h-6c-4.42,0-7.71-.7-9.91-4.02-.77,1.77-1.82,3.27-3.19,4.41-.48-.49-1.68-1.47-2.35-1.89,2.59-1.87,3.77-5.09,4.2-9.08l2.98,.28c-.14,1.05-.31,2.03-.53,2.97,.72,1.87,1.85,2.99,3.26,3.67v-8.24h-5.11v-2.64h13.2v2.64h-5.14v2.92h6.6v2.61h-6.6v3.48Zm-8.9-10.46h-2.81v-5.84h8.71v-2.33h3.02v2.33h8.78v5.84h-2.95v-3.2h-14.76v3.2Z"/>
          <path class="cls-2" d="M86.89,83.7c0-1.24,.91-2.08,2.11-2.08s2.11,.84,2.11,2.08-.91,2.05-2.11,2.05-2.11-.84-2.11-2.05Zm.24-12.14l-.12-3.48h3.98l-.12,3.48-.65,7.98h-2.45l-.65-7.98Z"/>
        </g>
      </g>
    </g>
  </g>
</svg>